<svg id="Layer_1" data-name="Layer 1" xmlns="http://www.w3.org/2000/svg" viewBox="0 0 1169.64 362.77"><defs><style>.cls-1{fill-rule:evenodd;}</style></defs><title>contract-white</title><path class="cls-1" d="M541.56,6.29c-.07,6.6-.14,12.23-.21,16.92h-.43q-4.78-7.12-8.09-9.47-4.14-3-14.25-3h-4.05c-1.28.14-2,.42-2.12.85a1.45,1.45,0,0,0-.22.85l-.1,52.35a7.83,7.83,0,0,0,1.59,5,10.27,10.27,0,0,0,2.66,2.72,10,10,0,0,0,3.73,1.54c.14.14.17.25.1.32a5.72,5.72,0,0,1-2.66.21,203.05,203.05,0,0,0-21.17,0,2.79,2.79,0,0,1-2.13-.43,10.13,10.13,0,0,0,6.12-2.6A7.87,7.87,0,0,0,503,66.19l-.1-53.73a1.72,1.72,0,0,0-1.07-1.6h-5.64q-10.11,0-14.26,3-3.3,2.34-8.08,9.47h-.43q-.1-7-.21-16.91l29.26.1,39-.21ZM988,262.06H792.39q3.6,3.6,7.11,7c87.53-3.57,188.45-7,188.45-7Zm-242.7,0H631.9l48.61,36.11s-12.87-18.59-7.15-22.17c1.8-1.12,35.65-3.08,78.36-5l-6.47-8.93Zm-562,0h356L490.7,298.17s12.87-18.59,7.15-22.17-314.59-13.94-314.59-13.94ZM580.07,320l-29.43-14.69,29.43-50.35,29.43,50.35L580.07,320Zm34-11.28-31,14.47v45.54L634.51,314l-20.43-5.32ZM588,257.51,637.81,310l-23.51-6L588,257.51Zm-41.91,51.16L525.63,314,577,368.68V323.14l-31-14.47Zm26.11-51.16L522.33,310l23.52-6,26.32-46.48ZM163.3,215.61q1.09.81,1.09,13.13A168.71,168.71,0,0,1,163,251.17a14.57,14.57,0,0,1-.82,1.91l-1.37,1.37q-4.1,3.82-15.59,7.94-19.14,6.83-47.6,6.83-39.93,0-68.11-26Q.81,217.25.26,177.86v-.28Q.8,138.46,29.53,112.2q28.17-26,68.11-26,28.46,0,47.6,6.84,11.49,4.11,15.59,7.94l1.37,1.36a15.23,15.23,0,0,1,.82,1.92,168.6,168.6,0,0,1,1.37,22.43q0,12.31-1.09,13.13h-.55A31.77,31.77,0,0,0,160,131.9a38.81,38.81,0,0,0-6.7-9.58,79.54,79.54,0,0,0-11.35-10,88.12,88.12,0,0,0-16.69-9.44Q114.34,98,96.82,98q-29.53,0-48.42,19.7Q28.16,139,28.16,176.21v3q0,37.22,20.24,58.54,18.88,19.69,48.42,19.7,17.52,0,28.45-4.92A88.67,88.67,0,0,0,142,243.1a78.94,78.94,0,0,0,11.35-10,38.77,38.77,0,0,0,6.7-9.57,31.91,31.91,0,0,0,2.74-7.93Zm115.21,32.54q-2.88.19-5.83.2-31.23,0-51.92-18.82-21.3-19.25-21.3-50.06,0-29.57,21.51-49.85,20.44-19,49.24-19.82c-10.56,4.72-20.53,10.59-28.79,17.9a47.59,47.59,0,0,0-7.94,7.3,52.33,52.33,0,0,0-10.56,19.09c-3.53,9.83-4.56,21.18-2.15,34.28h0q2.79,20.69,14.89,33.91A49.29,49.29,0,0,0,246.22,231c9.13,7.37,20.13,13,32.29,17.17Zm59.54-70.53q0-26.72-18.49-43.92-18.3-17.2-45.75-17.21c-.74,0-1.46,0-2.19,0a100.12,100.12,0,0,0-25.48,15.84,38.87,38.87,0,0,1,23.45-7.26q22.52,0,36.06,14.46,14.28,15.18,14.28,41.18,0,22.33-11.8,36.14t-30.48,13.83q-15.88,0-27.26-7c8.08,6.51,17.81,11.49,28.57,15.19A63.14,63.14,0,0,0,319,221.37q19-17.94,19-43.75Zm154.81-57.83a10.32,10.32,0,0,0-7.41,4.85q-2.65,4.11-2.66,11.44l.37,65q0,20.32.55,32.77c0,2.19-.37,3.72-1.1,4.57H481q-16.65-17-92.8-88l-.54,55.82v13.91q0,7.32,2.65,11.44a10.34,10.34,0,0,0,7.41,4.85v.18H367.3v-.18a10.34,10.34,0,0,0,7.41-4.85q2.66-4.12,2.66-11.44V204l.55-67.17q0-11.9-.37-17.57h.55L470,202.7q1.47,1.65,2,1.65c.49,0,.74-.79.74-2.38l-.19-65.89q0-7.32-2.65-11.44a10.33,10.33,0,0,0-7.42-4.85v-.18h30.39v.18Zm145.06-.55q-.18,17-.36,29.1h-.73q-8.25-12.26-13.92-16.29-7.12-5.13-24.52-5.12h-7c-2.19.24-3.41.73-3.66,1.46a2.63,2.63,0,0,0-.36,1.46l-.19,90.06a13.47,13.47,0,0,0,2.75,8.6,17.8,17.8,0,0,0,4.57,4.67,16.88,16.88,0,0,0,6.41,2.65c.24.24.3.43.18.55-.49.36-2,.49-4.57.36q-23.61-.92-36.43,0c-1.83.13-3-.12-3.66-.73A17.39,17.39,0,0,0,567,231.53a13.47,13.47,0,0,0,4.66-9.25l-.18-92.43a2.92,2.92,0,0,0-1.83-2.74H560q-17.38,0-24.52,5.13-5.68,4-13.91,16.28h-.74q-.18-12.08-.36-29.1l50.33.19,67.17-.37Zm55.23,117.5H693L677,236.56h-4l-15.92.18v-.18q8.42-1.09,9.88-12.81V223a15.27,15.27,0,0,0,.19-2.75l.18-83.64h-.18v-.19q0-7.32-2.66-11.44a10.35,10.35,0,0,0-7.41-4.84V120l45.76-.36q15,.54,23.79,6.22,10.8,6.95,10.8,20.68,0,18.12-22.7,31.11a6.94,6.94,0,0,0-3.47,1.84C735.06,214,805.4,293.24,827.46,297.13l6.22,1.1-29.29.18c-11.95.08-22.68-4.82-31.29-15.55-12.74-15.88-70-90.53-78.12-100.29a64.86,64.86,0,0,0-12.45.91l.55,36.79q0,7.32,2.65,11.44a10.35,10.35,0,0,0,7.42,4.85v.18ZM719.32,148q0-11.7-6-16.83-5.85-5.31-18.85-5.31-10.44,0-11.17,3.11a7.85,7.85,0,0,0-.18,1.83l-.55,44.66h7.32q15.38,0,22.42-8a28.37,28.37,0,0,0,7.05-19.5ZM857.6,241.41h22.14l.19-.18a9.76,9.76,0,0,1-6.59-4.12q-2.39-3.39-5.13-6.86-2.73-3.3-12.53-24.62t-14.92-33.22q-13.37-32.76-23.06-58.57-22.83,54.36-45.19,104c4.06,4.78,8.29,9.64,12.61,14.49Q794.9,208,819.53,151q.74-1.47,1.65-1.47c.48,0,1,.49,1.46,1.47l35,90.41Zm126.82-38.34q.74.54.73,8.78a112.68,112.68,0,0,1-.91,15,11.17,11.17,0,0,1-.55,1.28l-.92.92q-2.74,2.56-10.43,5.31-12.81,4.56-31.85,4.57-26.72,0-45.57-17.39-19.23-17.38-19.59-43.74v-.19q.38-26.16,19.59-43.74,18.86-17.38,45.57-17.39,19,0,31.85,4.58,7.68,2.75,10.43,5.31l.92.91a12.92,12.92,0,0,1,.55,1.28,112.79,112.79,0,0,1,.91,15q0,8.23-.73,8.79h-.37a20.84,20.84,0,0,0-1.83-5.31,26.23,26.23,0,0,0-4.48-6.41,53.75,53.75,0,0,0-7.6-6.68A59.47,59.47,0,0,0,959,127.66q-7.32-3.3-19-3.29-19.77,0-32.39,13.17Q894,151.82,894,176.71v2q0,24.9,13.55,39.17,12.63,13.19,32.39,13.18,11.71,0,19-3.29a59.47,59.47,0,0,0,11.16-6.32,52.51,52.51,0,0,0,7.6-6.68,25.86,25.86,0,0,0,4.48-6.41,20.79,20.79,0,0,0,1.83-5.3ZM1169.9,95.71q-.27,23.83-.52,40.75h-1q-11.53-17.18-19.48-22.81-10-7.19-34.35-7.18h-9.74c-3.07.34-4.78,1-5.12,2a3.68,3.68,0,0,0-.52,2l-.25,126.11a18.88,18.88,0,0,0,3.84,12,24.57,24.57,0,0,0,6.41,6.53,23.59,23.59,0,0,0,9,3.72c.34.34.43.6.26.77-.69.51-2.82.68-6.41.51q-33.08-1.29-51,0-3.84.25-5.12-1a24.32,24.32,0,0,0,14.73-6.27,18.88,18.88,0,0,0,6.54-13l-.26-129.44a4.09,4.09,0,0,0-2.56-3.84H1060.7q-24.35,0-34.34,7.18-7.95,5.64-19.48,22.81h-1q-.27-16.92-.52-40.76l70.49.26,94.07-.51ZM628.07,74.49l-9.26-.1H617q-4.26,0-9.9.1v-.1a6,6,0,0,0,4.31-2.82A12.21,12.21,0,0,0,613,64.92l-.11-19.37a5.7,5.7,0,0,0-.53-3c-.36-.49-1.17-.74-2.45-.74H573.16c-1.56,0-2.52.19-2.87.58s-.53,1.37-.53,2.93l.1,19.58a12.3,12.3,0,0,0,1.54,6.65,6.05,6.05,0,0,0,4.31,2.82v.1l-9.25-.1h-1.81q-4.26,0-9.9.1v-.1a6,6,0,0,0,4.31-2.82,12.21,12.21,0,0,0,1.55-6.65V16.72h-.11v-.11A12.28,12.28,0,0,0,559,10a6,6,0,0,0-4.31-2.82V7h21.17v.11a5.85,5.85,0,0,0-4.31,3.14Q570,13,569.76,19.38V32.89q0,3.61,3.51,3.62h36.17a5,5,0,0,0,2.67-.43c.49-.5.74-1.63.74-3.4L613,16.61h-.11V16.5a12.23,12.23,0,0,0-1.54-6.65A6.06,6.06,0,0,0,607,7v-.1h21.17V7a5.87,5.87,0,0,0-4.31,3.14q-1.54,2.72-1.75,9.1V49.81l.1,15.11a12.21,12.21,0,0,0,1.55,6.65,6,6,0,0,0,4.31,2.82v.1Zm65.75.22a17.61,17.61,0,0,1-2.23.1q-8.08-.42-20.64-.42-9.15,0-24.58.1v-.1a6,6,0,0,0,4.31-2.82,12.3,12.3,0,0,0,1.54-6.65l.1-48.52h-.1v-.11a12.3,12.3,0,0,0-1.54-6.65,6.06,6.06,0,0,0-4.31-2.82V6.71l19.47-.1q7.88,0,14.58-.21h.74c3.12-.07,6-.22,8.73-.43,2.26-.14,3.4,0,3.4.43V8.1l.11,9.25h-.11a5.12,5.12,0,0,0-1.06-2.44,6.83,6.83,0,0,0-2.77-1.86,21.84,21.84,0,0,0-5.11-1.28,79.51,79.51,0,0,0-8.19-.69Q671.69,11,663.82,11a3.34,3.34,0,0,0-2.24.53,3.67,3.67,0,0,0-.21,1.6V34.81c0,.85.5,1.27,1.49,1.27q2.76,0,20.11.11c2.84,0,4.89-.66,6.17-2a8.42,8.42,0,0,0,2.34-4.73h.11q-.11,4.14.1,17.13h-.1a6,6,0,0,0-2.82-4.31,12.21,12.21,0,0,0-6.65-1.55q-6.71-.42-19.79-.31c-.64,0-1,.24-1,.74V63.85c0,3.2,1.88,5.18,5.64,6,.92.14,4.15.22,9.68.22a27.93,27.93,0,0,0,6.81-.75,31.42,31.42,0,0,0,9.42-4,9.66,9.66,0,0,0,3.88-5l.11.11-2.13,13.72-.11.64Z" transform="translate(-0.26 -5.92)"/></svg>