<?xml version="1.0" encoding="UTF-8"?><svg id="Layer_1" xmlns="http://www.w3.org/2000/svg" viewBox="0 0 468.87 141.24"><defs><style>.cls-1,.cls-2,.cls-3{stroke:#231f20;stroke-miterlimit:10;}.cls-1,.cls-2,.cls-4{fill:#f4f2e6;}.cls-1,.cls-4{fill-rule:evenodd;}.cls-3{fill:none;}</style></defs><g><path class="cls-4" d="M107.02,.65c-.03,2.64-.06,4.89-.09,6.77h-.17c-1.28-1.9-2.35-3.16-3.23-3.79-1.11-.79-3.01-1.19-5.7-1.19h-1.62c-.51,.06-.79,.17-.85,.34-.06,.09-.09,.2-.09,.34l-.04,20.94c0,.79,.21,1.46,.64,2,.28,.43,.64,.79,1.06,1.09,.43,.3,.92,.5,1.49,.62,.06,.06,.07,.1,.04,.13-.11,.09-.47,.11-1.06,.09-3.66-.14-6.48-.14-8.47,0-.42,.03-.71-.03-.85-.17,.96-.08,1.78-.43,2.45-1.04,.67-.61,1.03-1.33,1.09-2.15l-.04-21.49c0-.28-.14-.5-.43-.64h-2.26c-2.7,0-4.6,.4-5.7,1.19-.88,.62-1.96,1.89-3.23,3.79h-.17c-.03-1.87-.06-4.13-.09-6.77l11.7,.04,15.62-.09h0Z"/><path class="cls-3" d="M107.02,.65c-.03,2.64-.06,4.89-.09,6.77h-.17c-1.28-1.9-2.35-3.16-3.23-3.79-1.11-.79-3.01-1.19-5.7-1.19h-1.62c-.51,.06-.79,.17-.85,.34-.06,.09-.09,.2-.09,.34l-.04,20.94c0,.79,.21,1.46,.64,2,.28,.43,.64,.79,1.06,1.09,.43,.3,.92,.5,1.49,.62,.06,.06,.07,.1,.04,.13-.11,.09-.47,.11-1.06,.09-3.66-.14-6.48-.14-8.47,0-.42,.03-.71-.03-.85-.17,.96-.08,1.78-.43,2.45-1.04,.67-.61,1.03-1.33,1.09-2.15l-.04-21.49c0-.28-.14-.5-.43-.64h-2.26c-2.7,0-4.6,.4-5.7,1.19-.88,.62-1.96,1.89-3.23,3.79h-.17c-.03-1.87-.06-4.13-.09-6.77l11.7,.04,15.62-.09h0Z"/></g><g><path class="cls-4" d="M395.58,96.96h-78.22c.96,.96,1.91,1.89,2.84,2.78,35.01-1.43,75.38-2.78,75.38-2.78h0Z"/><path class="cls-3" d="M395.58,96.96h-78.22c.96,.96,1.91,1.89,2.84,2.78,35.01-1.43,75.38-2.78,75.38-2.78h0Z"/></g><g><path class="cls-4" d="M298.5,96.96h-45.34l19.45,14.44s-5.15-7.44-2.86-8.87c.72-.45,14.26-1.23,31.34-2.01l-2.59-3.57h0Z"/><path class="cls-3" d="M298.5,96.96h-45.34l19.45,14.44s-5.15-7.44-2.86-8.87c.72-.45,14.26-1.23,31.34-2.01l-2.59-3.57h0Z"/></g><g><path class="cls-4" d="M73.7,96.96H216.13l-19.45,14.44s5.15-7.44,2.86-8.87c-2.29-1.43-125.84-5.58-125.84-5.58h0Z"/><path class="cls-3" d="M73.7,96.96H216.13l-19.45,14.44s5.15-7.44,2.86-8.87c-2.29-1.43-125.84-5.58-125.84-5.58h0Z"/></g><g><polygon class="cls-4" points="232.43 120.11 220.66 114.24 232.43 94.1 244.2 114.24 232.43 120.11 232.43 120.11"/><polygon class="cls-3" points="232.43 120.11 220.66 114.24 232.43 94.1 244.2 114.24 232.43 120.11 232.43 120.11"/></g><g><polygon class="cls-4" points="246.03 115.6 233.65 121.39 233.65 139.61 254.21 117.73 246.03 115.6 246.03 115.6"/><polygon class="cls-3" points="246.03 115.6 233.65 121.39 233.65 139.61 254.21 117.73 246.03 115.6 246.03 115.6"/></g><g><polygon class="cls-4" points="235.59 95.14 255.52 116.11 246.12 113.73 235.59 95.14 235.59 95.14"/><polygon class="cls-3" points="235.59 95.14 255.52 116.11 246.12 113.73 235.59 95.14 235.59 95.14"/></g><g><polygon class="cls-4" points="218.82 115.6 210.65 117.73 231.21 139.61 231.21 121.39 218.82 115.6 218.82 115.6"/><polygon class="cls-3" points="218.82 115.6 210.65 117.73 231.21 139.61 231.21 121.39 218.82 115.6 218.82 115.6"/></g><g><polygon class="cls-4" points="229.27 95.14 209.33 116.11 218.74 113.73 229.27 95.14 229.27 95.14"/><polygon class="cls-3" points="229.27 95.14 209.33 116.11 218.74 113.73 229.27 95.14 229.27 95.14"/></g><g><path class="cls-4" d="M65.72,78.38c.29,.22,.44,1.97,.44,5.25s-.18,6.27-.55,8.97c-.07,.22-.18,.47-.33,.76l-.55,.55c-1.09,1.02-3.17,2.08-6.24,3.17-5.11,1.82-11.45,2.74-19.04,2.74-10.65,0-19.73-3.47-27.25-10.4C4.55,82.5,.65,73.78,.5,63.28v-.11c.15-10.43,4.05-19.15,11.71-26.15,7.51-6.93,16.6-10.4,27.25-10.4,7.59,0,13.93,.91,19.04,2.74,3.06,1.09,5.14,2.15,6.24,3.17l.55,.55c.14,.29,.25,.55,.33,.76,.36,2.7,.55,5.69,.55,8.97s-.15,5.03-.44,5.25h-.22c-.15-.88-.51-1.93-1.09-3.17-.58-1.24-1.48-2.52-2.68-3.83-1.2-1.31-2.72-2.64-4.54-3.99-1.82-1.35-4.05-2.61-6.67-3.78-2.92-1.31-6.71-1.97-11.38-1.97-7.88,0-14.33,2.63-19.37,7.88-5.4,5.69-8.1,13.5-8.1,23.42v1.2c0,9.92,2.7,17.73,8.1,23.42,5.03,5.25,11.49,7.88,19.37,7.88,4.67,0,8.46-.66,11.38-1.97,2.63-1.17,4.85-2.43,6.67-3.78,1.82-1.35,3.34-2.68,4.54-3.99,1.2-1.31,2.1-2.59,2.68-3.83,.58-1.24,.95-2.3,1.09-3.17h.22Z"/><path class="cls-3" d="M65.72,78.38c.29,.22,.44,1.97,.44,5.25s-.18,6.27-.55,8.97c-.07,.22-.18,.47-.33,.76l-.55,.55c-1.09,1.02-3.17,2.08-6.24,3.17-5.11,1.82-11.45,2.74-19.04,2.74-10.65,0-19.73-3.47-27.25-10.4C4.55,82.5,.65,73.78,.5,63.28v-.11c.15-10.43,4.05-19.15,11.71-26.15,7.51-6.93,16.6-10.4,27.25-10.4,7.59,0,13.93,.91,19.04,2.74,3.06,1.09,5.14,2.15,6.24,3.17l.55,.55c.14,.29,.25,.55,.33,.76,.36,2.7,.55,5.69,.55,8.97s-.15,5.03-.44,5.25h-.22c-.15-.88-.51-1.93-1.09-3.17-.58-1.24-1.48-2.52-2.68-3.83-1.2-1.31-2.72-2.64-4.54-3.99-1.82-1.35-4.05-2.61-6.67-3.78-2.92-1.31-6.71-1.97-11.38-1.97-7.88,0-14.33,2.63-19.37,7.88-5.4,5.69-8.1,13.5-8.1,23.42v1.2c0,9.92,2.7,17.73,8.1,23.42,5.03,5.25,11.49,7.88,19.37,7.88,4.67,0,8.46-.66,11.38-1.97,2.63-1.17,4.85-2.43,6.67-3.78,1.82-1.35,3.34-2.68,4.54-3.99,1.2-1.31,2.1-2.59,2.68-3.83,.58-1.24,.95-2.3,1.09-3.17h.22Z"/></g><g><path class="cls-4" d="M111.8,91.4c-.77,.05-1.54,.08-2.33,.08-8.33,0-15.25-2.51-20.77-7.53-5.68-5.13-8.52-11.8-8.52-20.02s2.87-14.53,8.6-19.94c5.45-5.08,12.01-7.72,19.7-7.93-4.23,1.89-8.21,4.24-11.52,7.16-1.13,.82-2.19,1.79-3.17,2.92-1.92,2.2-3.33,4.74-4.23,7.64-1.41,3.93-1.82,8.47-.86,13.71h0c.74,5.52,2.73,10.04,5.95,13.57,1.27,1.37,2.68,2.53,4.23,3.48,3.65,2.95,8.05,5.2,12.91,6.87h0Z"/><path class="cls-3" d="M111.8,91.4c-.77,.05-1.54,.08-2.33,.08-8.33,0-15.25-2.51-20.77-7.53-5.68-5.13-8.52-11.8-8.52-20.02s2.87-14.53,8.6-19.94c5.45-5.08,12.01-7.72,19.7-7.93-4.23,1.89-8.21,4.24-11.52,7.16-1.13,.82-2.19,1.79-3.17,2.92-1.92,2.2-3.33,4.74-4.23,7.64-1.41,3.93-1.82,8.47-.86,13.71h0c.74,5.52,2.73,10.04,5.95,13.57,1.27,1.37,2.68,2.53,4.23,3.48,3.65,2.95,8.05,5.2,12.91,6.87h0Z"/></g><g><path class="cls-4" d="M135.62,63.18c0-7.13-2.47-12.98-7.39-17.57-4.88-4.59-10.98-6.88-18.3-6.88-.29,0-.58,0-.87,.01-3.74,1.67-7.27,3.75-10.19,6.34,2.67-1.94,5.8-2.91,9.38-2.91,6,0,10.81,1.93,14.42,5.78,3.81,4.05,5.71,9.54,5.71,16.47,0,5.96-1.57,10.78-4.72,14.46-3.15,3.69-7.21,5.53-12.19,5.53-4.24,0-7.87-.93-10.9-2.78,3.23,2.61,7.12,4.6,11.43,6.08,6.15-.42,11.49-2.77,16.02-7.03,5.08-4.78,7.61-10.62,7.61-17.5h0Z"/><path class="cls-3" d="M135.62,63.18c0-7.13-2.47-12.98-7.39-17.57-4.88-4.59-10.98-6.88-18.3-6.88-.29,0-.58,0-.87,.01-3.74,1.67-7.27,3.75-10.19,6.34,2.67-1.94,5.8-2.91,9.38-2.91,6,0,10.81,1.93,14.42,5.78,3.81,4.05,5.71,9.54,5.71,16.47,0,5.96-1.57,10.78-4.72,14.46-3.15,3.69-7.21,5.53-12.19,5.53-4.24,0-7.87-.93-10.9-2.78,3.23,2.61,7.12,4.6,11.43,6.08,6.15-.42,11.49-2.77,16.02-7.03,5.08-4.78,7.61-10.62,7.61-17.5h0Z"/></g><g><path class="cls-4" d="M197.54,40.05c-1.27,.2-2.26,.84-2.96,1.94-.71,1.1-1.06,2.62-1.06,4.58l.15,25.99c0,5.42,.07,9.79,.22,13.1,0,.88-.15,1.49-.44,1.83h-.66c-4.44-4.54-16.81-16.28-37.12-35.22l-.22,22.33v5.56c0,1.95,.35,3.48,1.06,4.58,.71,1.1,1.7,1.75,2.97,1.94v.07h-12.15v-.07c1.27-.19,2.26-.84,2.96-1.94,.71-1.1,1.06-2.62,1.06-4.58v-6.44l.22-26.87c0-3.17-.05-5.51-.15-7.03h.22l36.75,33.39c.39,.44,.66,.66,.81,.66,.19,0,.29-.32,.29-.95l-.07-26.36c0-1.95-.35-3.48-1.06-4.58-.71-1.1-1.7-1.74-2.97-1.94v-.07h12.15v.07h0Z"/><path class="cls-3" d="M197.54,40.05c-1.27,.2-2.26,.84-2.96,1.94-.71,1.1-1.06,2.62-1.06,4.58l.15,25.99c0,5.42,.07,9.79,.22,13.1,0,.88-.15,1.49-.44,1.83h-.66c-4.44-4.54-16.81-16.28-37.12-35.22l-.22,22.33v5.56c0,1.95,.35,3.48,1.06,4.58,.71,1.1,1.7,1.75,2.97,1.94v.07h-12.15v-.07c1.27-.19,2.26-.84,2.96-1.94,.71-1.1,1.06-2.62,1.06-4.58v-6.44l.22-26.87c0-3.17-.05-5.51-.15-7.03h.22l36.75,33.39c.39,.44,.66,.66,.81,.66,.19,0,.29-.32,.29-.95l-.07-26.36c0-1.95-.35-3.48-1.06-4.58-.71-1.1-1.7-1.74-2.97-1.94v-.07h12.15v.07h0Z"/></g><g><path class="cls-4" d="M255.57,39.83c-.05,4.54-.1,8.42-.15,11.64h-.29c-2.2-3.27-4.05-5.44-5.57-6.52-1.9-1.37-5.17-2.05-9.81-2.05h-2.78c-.88,.1-1.37,.29-1.46,.59-.1,.15-.15,.34-.15,.58l-.07,36.02c0,1.37,.37,2.51,1.1,3.44,.49,.73,1.1,1.35,1.83,1.87,.73,.51,1.59,.87,2.56,1.06,.1,.1,.12,.17,.07,.22-.19,.15-.8,.2-1.83,.15-6.3-.24-11.15-.24-14.57,0-.73,.05-1.22-.05-1.46-.29,1.66-.15,3.06-.74,4.21-1.79,1.15-1.05,1.77-2.28,1.87-3.7l-.07-36.97c0-.49-.24-.85-.73-1.1h-3.88c-4.64,0-7.91,.68-9.81,2.05-1.51,1.07-3.37,3.24-5.56,6.51h-.29c-.05-3.22-.1-7.1-.15-11.64l20.13,.07,26.87-.15h0Z"/><path class="cls-3" d="M255.57,39.83c-.05,4.54-.1,8.42-.15,11.64h-.29c-2.2-3.27-4.05-5.44-5.57-6.52-1.9-1.37-5.17-2.05-9.81-2.05h-2.78c-.88,.1-1.37,.29-1.46,.59-.1,.15-.15,.34-.15,.58l-.07,36.02c0,1.37,.37,2.51,1.1,3.44,.49,.73,1.1,1.35,1.83,1.87,.73,.51,1.59,.87,2.56,1.06,.1,.1,.12,.17,.07,.22-.19,.15-.8,.2-1.83,.15-6.3-.24-11.15-.24-14.57,0-.73,.05-1.22-.05-1.46-.29,1.66-.15,3.06-.74,4.21-1.79,1.15-1.05,1.77-2.28,1.87-3.7l-.07-36.97c0-.49-.24-.85-.73-1.1h-3.88c-4.64,0-7.91,.68-9.81,2.05-1.51,1.07-3.37,3.24-5.56,6.51h-.29c-.05-3.22-.1-7.1-.15-11.64l20.13,.07,26.87-.15h0Z"/></g><g><path class="cls-4" d="M331.38,110.99c-8.82-1.56-36.96-33.26-46.48-47.07,.25-.29,.71-.54,1.39-.73,6.05-3.46,9.08-7.61,9.08-12.45,0-3.66-1.44-6.42-4.32-8.27-2.34-1.51-5.51-2.34-9.52-2.49l-18.3,.15v.07c1.27,.2,2.26,.84,2.97,1.94,.71,1.1,1.06,2.62,1.06,4.58v.07h.07l-.07,33.46c0,.49-.03,.85-.07,1.1v.29c-.39,3.12-1.71,4.83-3.95,5.13v.07l6.37-.07h1.61l6.37,.07h.07v-.07c-1.27-.2-2.26-.84-2.97-1.94-.71-1.1-1.06-2.62-1.06-4.57l-.22-14.72c1.17-.25,2.83-.37,4.98-.37,3.27,3.9,26.15,33.77,31.25,40.12,3.45,4.29,7.74,6.25,12.52,6.22l11.71-.07-2.49-.44Zm-55.04-48.68h-2.93l.22-17.86c0-.29,.02-.54,.07-.73,.2-.83,1.68-1.25,4.47-1.25,3.47,0,5.98,.71,7.54,2.12,1.61,1.37,2.42,3.61,2.42,6.73s-.94,5.67-2.82,7.8c-1.88,2.12-4.87,3.18-8.97,3.18Z"/><path class="cls-3" d="M331.38,110.99c-8.82-1.56-36.96-33.26-46.48-47.07,.25-.29,.71-.54,1.39-.73,6.05-3.46,9.08-7.61,9.08-12.45,0-3.66-1.44-6.42-4.32-8.27-2.34-1.51-5.51-2.34-9.52-2.49l-18.3,.15v.07c1.27,.2,2.26,.84,2.97,1.94,.71,1.1,1.06,2.62,1.06,4.58v.07h.07l-.07,33.46c0,.49-.03,.85-.07,1.1v.29c-.39,3.12-1.71,4.83-3.95,5.13v.07l6.37-.07h1.61l6.37,.07h.07v-.07c-1.27-.2-2.26-.84-2.97-1.94-.71-1.1-1.06-2.62-1.06-4.57l-.22-14.72c1.17-.25,2.83-.37,4.98-.37,3.27,3.9,26.15,33.77,31.25,40.12,3.45,4.29,7.74,6.25,12.52,6.22l11.71-.07-2.49-.44Zm-55.04-48.68h-2.93l.22-17.86c0-.29,.02-.54,.07-.73,.2-.83,1.68-1.25,4.47-1.25,3.47,0,5.98,.71,7.54,2.12,1.61,1.37,2.42,3.61,2.42,6.73s-.94,5.67-2.82,7.8c-1.88,2.12-4.87,3.18-8.97,3.18Z"/></g><g><path class="cls-4" d="M343.44,88.7h8.86l.07-.07c-1.12-.2-2-.74-2.64-1.65-.64-.9-1.32-1.82-2.05-2.74-.73-.88-2.4-4.16-5.01-9.85-2.61-5.69-4.6-10.12-5.97-13.29-3.56-8.74-6.64-16.55-9.22-23.43-6.09,14.5-12.11,28.36-18.08,41.58,1.62,1.91,3.32,3.86,5.04,5.8,2.61-6.47,7.2-17.31,13.76-32.52,.2-.39,.42-.59,.66-.59,.2,0,.39,.19,.59,.59l13.98,36.17h0Z"/><path class="cls-3" d="M343.44,88.7h8.86l.07-.07c-1.12-.2-2-.74-2.64-1.65-.64-.9-1.32-1.82-2.05-2.74-.73-.88-2.4-4.16-5.01-9.85-2.61-5.69-4.6-10.12-5.97-13.29-3.56-8.74-6.64-16.55-9.22-23.43-6.09,14.5-12.11,28.36-18.08,41.58,1.62,1.91,3.32,3.86,5.04,5.8,2.61-6.47,7.2-17.31,13.76-32.52,.2-.39,.42-.59,.66-.59,.2,0,.39,.19,.59,.59l13.98,36.17h0Z"/></g><g><path class="cls-4" d="M394.17,73.36c.2,.15,.29,1.32,.29,3.51s-.12,4.2-.37,6c-.05,.15-.12,.32-.22,.51l-.37,.37c-.73,.68-2.12,1.39-4.17,2.12-3.42,1.22-7.66,1.83-12.74,1.83-7.13,0-13.2-2.32-18.23-6.96-5.12-4.64-7.74-10.47-7.83-17.5v-.07c.1-6.98,2.71-12.81,7.83-17.5,5.03-4.64,11.1-6.96,18.23-6.96,5.08,0,9.32,.61,12.74,1.83,2.05,.73,3.44,1.44,4.17,2.12l.37,.37c.1,.2,.17,.37,.22,.51,.24,1.81,.37,3.81,.37,6s-.1,3.37-.29,3.51h-.15c-.1-.58-.34-1.29-.73-2.12-.39-.83-.99-1.68-1.79-2.56-.81-.88-1.82-1.77-3.04-2.67-1.22-.9-2.71-1.75-4.47-2.53-1.95-.88-4.49-1.32-7.61-1.32-5.27,0-9.59,1.76-12.96,5.27-3.61,3.81-5.42,9.03-5.42,15.67v.8c0,6.64,1.81,11.86,5.42,15.67,3.37,3.51,7.69,5.27,12.96,5.27,3.12,0,5.66-.44,7.61-1.32,1.76-.78,3.25-1.62,4.47-2.53,1.22-.9,2.23-1.79,3.04-2.67,.8-.88,1.4-1.73,1.79-2.56,.39-.83,.63-1.54,.73-2.12h.15Z"/><path class="cls-3" d="M394.17,73.36c.2,.15,.29,1.32,.29,3.51s-.12,4.2-.37,6c-.05,.15-.12,.32-.22,.51l-.37,.37c-.73,.68-2.12,1.39-4.17,2.12-3.42,1.22-7.66,1.83-12.74,1.83-7.13,0-13.2-2.32-18.23-6.96-5.12-4.64-7.74-10.47-7.83-17.5v-.07c.1-6.98,2.71-12.81,7.83-17.5,5.03-4.64,11.1-6.96,18.23-6.96,5.08,0,9.32,.61,12.74,1.83,2.05,.73,3.44,1.44,4.17,2.12l.37,.37c.1,.2,.17,.37,.22,.51,.24,1.81,.37,3.81,.37,6s-.1,3.37-.29,3.51h-.15c-.1-.58-.34-1.29-.73-2.12-.39-.83-.99-1.68-1.79-2.56-.81-.88-1.82-1.77-3.04-2.67-1.22-.9-2.71-1.75-4.47-2.53-1.95-.88-4.49-1.32-7.61-1.32-5.27,0-9.59,1.76-12.96,5.27-3.61,3.81-5.42,9.03-5.42,15.67v.8c0,6.64,1.81,11.86,5.42,15.67,3.37,3.51,7.69,5.27,12.96,5.27,3.12,0,5.66-.44,7.61-1.32,1.76-.78,3.25-1.62,4.47-2.53,1.22-.9,2.23-1.79,3.04-2.67,.8-.88,1.4-1.73,1.79-2.56,.39-.83,.63-1.54,.73-2.12h.15Z"/></g><g><path class="cls-4" d="M468.36,30.42c-.07,6.36-.14,11.79-.21,16.3h-.41c-3.08-4.58-5.67-7.62-7.79-9.13-2.66-1.91-7.24-2.87-13.74-2.87h-3.9c-1.23,.14-1.91,.41-2.05,.82-.14,.21-.21,.48-.21,.82l-.1,50.44c0,1.91,.51,3.52,1.54,4.82,.68,1.02,1.54,1.9,2.56,2.61,1.03,.72,2.22,1.21,3.59,1.48,.14,.14,.17,.24,.1,.31-.27,.21-1.13,.27-2.56,.21-8.82-.34-15.62-.34-20.4,0-1.03,.07-1.71-.07-2.05-.41,2.32-.2,4.29-1.04,5.89-2.51,1.61-1.47,2.48-3.2,2.61-5.18l-.1-51.78c0-.68-.34-1.2-1.02-1.54h-5.43c-6.49,0-11.07,.96-13.74,2.87-2.12,1.5-4.72,4.54-7.79,9.12h-.41c-.07-4.51-.14-9.95-.21-16.3l28.2,.1,37.63-.21h0Z"/><path class="cls-3" d="M468.36,30.42c-.07,6.36-.14,11.79-.21,16.3h-.41c-3.08-4.58-5.67-7.62-7.79-9.13-2.66-1.91-7.24-2.87-13.74-2.87h-3.9c-1.23,.14-1.91,.41-2.05,.82-.14,.21-.21,.48-.21,.82l-.1,50.44c0,1.91,.51,3.52,1.54,4.82,.68,1.02,1.54,1.9,2.56,2.61,1.03,.72,2.22,1.21,3.59,1.48,.14,.14,.17,.24,.1,.31-.27,.21-1.13,.27-2.56,.21-8.82-.34-15.62-.34-20.4,0-1.03,.07-1.71-.07-2.05-.41,2.32-.2,4.29-1.04,5.89-2.51,1.61-1.47,2.48-3.2,2.61-5.18l-.1-51.78c0-.68-.34-1.2-1.02-1.54h-5.43c-6.49,0-11.07,.96-13.74,2.87-2.12,1.5-4.72,4.54-7.79,9.12h-.41c-.07-4.51-.14-9.95-.21-16.3l28.2,.1,37.63-.21h0Z"/></g><g><path class="cls-4" d="M139.63,27.93l-3.7-.04h-.72c-1.14,0-2.45,.01-3.96,.04v-.04c.74-.11,1.31-.49,1.72-1.13,.41-.64,.62-1.52,.62-2.66l-.04-7.75c0-.6-.07-.99-.21-1.19-.14-.2-.47-.3-.98-.3h-14.68c-.62,0-1.01,.08-1.15,.23-.14,.16-.21,.55-.21,1.17l.04,7.83c0,1.14,.21,2.02,.62,2.66,.41,.64,.99,1.01,1.72,1.13v.04l-3.7-.04h-.72c-1.13,0-2.45,.01-3.96,.04v-.04c.74-.11,1.31-.49,1.72-1.13,.41-.64,.62-1.52,.62-2.66V4.82h-.04v-.04c0-1.14-.21-2.02-.62-2.66-.41-.64-.99-1.01-1.72-1.13v-.04h8.47v.04c-.74,.11-1.31,.53-1.72,1.26-.41,.72-.65,1.94-.7,3.64v5.41c0,.96,.47,1.45,1.4,1.45h14.47c.57,0,.92-.06,1.06-.17,.2-.2,.3-.65,.3-1.36l.04-6.43h-.04v-.04c0-1.13-.21-2.02-.62-2.66-.41-.64-.99-1.01-1.72-1.13v-.04h8.47v.04c-.74,.11-1.31,.53-1.72,1.26-.41,.72-.65,1.94-.7,3.64v12.21l.04,6.04c0,1.14,.21,2.02,.62,2.66,.41,.64,.99,1.01,1.72,1.13v.04h0Z"/><path class="cls-3" d="M139.63,27.93l-3.7-.04h-.72c-1.14,0-2.45,.01-3.96,.04v-.04c.74-.11,1.31-.49,1.72-1.13,.41-.64,.62-1.52,.62-2.66l-.04-7.75c0-.6-.07-.99-.21-1.19-.14-.2-.47-.3-.98-.3h-14.68c-.62,0-1.01,.08-1.15,.23-.14,.16-.21,.55-.21,1.17l.04,7.83c0,1.14,.21,2.02,.62,2.66,.41,.64,.99,1.01,1.72,1.13v.04l-3.7-.04h-.72c-1.13,0-2.45,.01-3.96,.04v-.04c.74-.11,1.31-.49,1.72-1.13,.41-.64,.62-1.52,.62-2.66V4.82h-.04v-.04c0-1.14-.21-2.02-.62-2.66-.41-.64-.99-1.01-1.72-1.13v-.04h8.47v.04c-.74,.11-1.31,.53-1.72,1.26-.41,.72-.65,1.94-.7,3.64v5.41c0,.96,.47,1.45,1.4,1.45h14.47c.57,0,.92-.06,1.06-.17,.2-.2,.3-.65,.3-1.36l.04-6.43h-.04v-.04c0-1.13-.21-2.02-.62-2.66-.41-.64-.99-1.01-1.72-1.13v-.04h8.47v.04c-.74,.11-1.31,.53-1.72,1.26-.41,.72-.65,1.94-.7,3.64v12.21l.04,6.04c0,1.14,.21,2.02,.62,2.66,.41,.64,.99,1.01,1.72,1.13v.04h0Z"/></g><g><path class="cls-4" d="M162.93,28.02c-.2,.03-.5,.04-.89,.04-2.16-.11-4.91-.17-8.26-.17-2.44,0-5.72,.01-9.83,.04v-.04c.74-.11,1.31-.49,1.72-1.13,.41-.64,.62-1.52,.62-2.66l.04-19.41h-.04v-.04c0-1.13-.21-2.02-.62-2.66-.41-.64-.99-1.01-1.72-1.13v-.04l7.79-.04c2.1,0,4.04-.03,5.83-.08h.3c1.25-.03,2.41-.09,3.49-.17,.91-.06,1.36,0,1.36,.17v.68l.04,3.7h-.04c-.06-.37-.2-.7-.42-.98-.23-.28-.6-.53-1.11-.74-.51-.21-1.19-.38-2.04-.51-.85-.13-1.94-.22-3.28-.28-1.19-.03-2.84-.04-4.94-.04-.45,0-.75,.07-.89,.21-.06,.09-.09,.3-.09,.64V12.06c0,.34,.2,.51,.6,.51,.74,0,3.42,.01,8.04,.04,1.13,0,1.96-.26,2.47-.79,.51-.52,.82-1.16,.94-1.89h.04c-.03,1.11-.01,3.39,.04,6.85h-.04c-.11-.74-.49-1.31-1.13-1.72-.64-.41-1.52-.62-2.66-.62-1.79-.11-4.43-.16-7.92-.13-.26,0-.38,.1-.38,.3v9.07c0,1.28,.75,2.07,2.26,2.38,.37,.06,1.66,.09,3.87,.09,1.02,0,1.93-.1,2.72-.3,1.7-.48,2.96-1.01,3.77-1.6,.81-.58,1.33-1.24,1.55-1.98l.04,.04-.85,5.49-.04,.26-.34-.04Z"/><path class="cls-3" d="M162.93,28.02c-.2,.03-.5,.04-.89,.04-2.16-.11-4.91-.17-8.26-.17-2.44,0-5.72,.01-9.83,.04v-.04c.74-.11,1.31-.49,1.72-1.13,.41-.64,.62-1.52,.62-2.66l.04-19.41h-.04v-.04c0-1.13-.21-2.02-.62-2.66-.41-.64-.99-1.01-1.72-1.13v-.04l7.79-.04c2.1,0,4.04-.03,5.83-.08h.3c1.25-.03,2.41-.09,3.49-.17,.91-.06,1.36,0,1.36,.17v.68l.04,3.7h-.04c-.06-.37-.2-.7-.42-.98-.23-.28-.6-.53-1.11-.74-.51-.21-1.19-.38-2.04-.51-.85-.13-1.94-.22-3.28-.28-1.19-.03-2.84-.04-4.94-.04-.45,0-.75,.07-.89,.21-.06,.09-.09,.3-.09,.64V12.06c0,.34,.2,.51,.6,.51,.74,0,3.42,.01,8.04,.04,1.13,0,1.96-.26,2.47-.79,.51-.52,.82-1.16,.94-1.89h.04c-.03,1.11-.01,3.39,.04,6.85h-.04c-.11-.74-.49-1.31-1.13-1.72-.64-.41-1.52-.62-2.66-.62-1.79-.11-4.43-.16-7.92-.13-.26,0-.38,.1-.38,.3v9.07c0,1.28,.75,2.07,2.26,2.38,.37,.06,1.66,.09,3.87,.09,1.02,0,1.93-.1,2.72-.3,1.7-.48,2.96-1.01,3.77-1.6,.81-.58,1.33-1.24,1.55-1.98l.04,.04-.85,5.49-.04,.26-.34-.04Z"/></g><path class="cls-1" d="M372.14,104.46c.41,.64,.62,1.52,.62,2.66v.04h.04l-.04,20.31c1.38,1.57,2.78,3.11,4.17,4.53,0,0-.47-1.41-.47-2.41l-.13-11.54c.68-.14,1.69-.18,2.49-.21,.52-.02,3.27-.2,4.19-.72,.22-.13,.94-.3,1.21-.43,3.52-2.01,4.87-4.42,4.87-7.23,0-2.13-.84-3.73-2.51-4.81-1.36-.88-3.2-1.36-5.53-1.45l-10.63,.08v.04c.74,.11,1.31,.49,1.72,1.13Zm4.32,1.34c0-.17,.01-.31,.04-.43,.11-.48,.98-.72,2.59-.72,2.01,0,3.47,.41,4.38,1.23,.94,.79,1.4,2.1,1.4,3.91s-.55,3.3-1.64,4.53c-1.09,1.23-2.83,1.85-5.21,1.85h-1.7l.13-10.38Z"/><path class="cls-1" d="M381.46,140.44c-5.13-.9-17.47-15.32-23-23.35,.14-.17,.41-.31,.81-.43,3.52-2.01,5.27-4.42,5.27-7.23,0-2.13-.84-3.73-2.51-4.81-1.36-.88-3.2-1.36-5.53-1.45l-10.63,.08v.04c.74,.11,1.31,.49,1.72,1.13,.41,.64,.62,1.52,.62,2.66v.04h.04l-.04,19.44c0,.28-.01,.5-.04,.64v.17c-.23,1.82-.99,2.81-2.3,2.98v.04l3.7-.04h.94l3.7,.04h.04v-.04c-.74-.11-1.31-.49-1.72-1.13-.41-.64-.62-1.52-.62-2.66l-.13-8.55c.68-.14,1.64-.21,2.89-.21,1.9,2.27,11.19,15.62,14.15,19.31,2,2.49,4.49,3.63,7.27,3.62l6.81-.04-1.45-.26Zm-27.98-24.28h-1.7l.13-10.38c0-.17,.01-.31,.04-.43,.11-.48,.98-.72,2.59-.72,2.01,0,3.47,.41,4.38,1.23,.94,.79,1.4,2.1,1.4,3.91s-.55,3.3-1.64,4.53c-1.09,1.23-2.83,1.85-5.21,1.85Z"/><path class="cls-2" d="M408.47,117.72s1.82,.24,2.96,1.11c1.14,.87,1.05,1.38,1.13,2.07,.08,.68,.13,1.45,.13,2.3s-.05,1.68-.15,2.48c-.1,.79-.5,1.65-1.92,2.41-1.02,.38-2.28,.58-3.81,.58-2.93,0-5.33-.98-7.21-2.93-2.01-2.12-3.01-5.02-3.01-8.71v-.45c0-3.69,1-6.59,3.01-8.71,1.87-1.95,4.27-2.93,7.21-2.93,1.74,0,3.15,.24,4.23,.73,.98,.43,1.8,.9,2.48,1.4,.68,.5,1.24,1,1.69,1.49,.45,.49,.78,.96,1,1.43,.22,.46,.35,.85,.41,1.18h.08c.11-.08,.16-.73,.16-1.95s-.07-2.33-.2-3.34c-.03-.08-.07-.18-.12-.28l-.2-.2c-.41-.38-1.18-.77-2.32-1.18-1.9-.68-4.26-1.02-7.08-1.02-3.96,0-7.34,1.29-10.14,3.87-2.85,2.61-4.3,5.85-4.36,9.73v.04c.05,3.91,1.51,7.15,4.36,9.73,2.8,2.58,6.17,3.87,10.14,3.87,2.82,0,5.18-.34,7.08-1.02,1.14-.41,1.91-.8,2.32-1.18l.2-.2c.05-.11,.09-.2,.12-.28,.14-1,.2-2.12,.2-3.34,0-.45,0-.8-.02-1.09,0-.51,.01-1.36,0-2.91,0-.56,.12-.97,.29-1.24,.22-.34,.41-.37,1.06-.75s1.35-.67,1.35-.67h-11.08Z"/></svg>