<svg xmlns="http://www.w3.org/2000/svg" viewBox="0 0 119.48 117.78"><title>Asset 3</title><g id="Layer_2" data-name="Layer 2"><g id="Layer_1-2" data-name="Layer 1"><path d="M59.74,2,89.17,52.35,59.74,67,30.3,52.35,59.74,2m0-2h0A2,2,0,0,0,58,1L28.58,51.35a2,2,0,0,0,.83,2.79L58.84,68.83a2,2,0,0,0,1.79,0L90.06,54.14a2,2,0,0,0,.84-2.79L61.46,1a2,2,0,0,0-1.72-1Z"/><path d="M93.75,55.76l22.43,5.32-53.4,54.7V70.23l31-14.47m0-2a2,2,0,0,0-.85.19l-31,14.47a2,2,0,0,0-1.16,1.81v45.55A2,2,0,0,0,62,117.63a2,2,0,0,0,.75.15,2,2,0,0,0,1.44-.61l53.39-54.69a2,2,0,0,0-1-3.35L94.21,53.81a2.4,2.4,0,0,0-.46-.05Z"/><path d="M64.63,3.61,117.48,57,94,51.08,64.63,3.61m0-2a2,2,0,0,0-1.7,3.05L92.26,52.13a2,2,0,0,0,1.21.89L117,59a2.14,2.14,0,0,0,.5.06,2,2,0,0,0,1.42-3.41L66.06,2.2a2,2,0,0,0-1.43-.59Z"/><path d="M25.73,55.76l31,14.47v45.55L3.3,61.08l22.43-5.32m0-2a2.31,2.31,0,0,0-.46.05L2.84,59.13a2,2,0,0,0-1,3.35l53.39,54.69a2,2,0,0,0,1.43.61,2,2,0,0,0,2-2V70.23a2,2,0,0,0-1.15-1.81L26.57,54a1.88,1.88,0,0,0-.84-.19Z"/><path d="M53.84,3.61,25.51,51.08,2,57,53.84,3.61m0-2a2,2,0,0,0-1.43.6L.56,55.64A2,2,0,0,0,2,59,2.05,2.05,0,0,0,2.49,59L26,53a2,2,0,0,0,1.22-.92L55.56,4.63A2,2,0,0,0,55.06,2a2,2,0,0,0-1.22-.41Z"/></g></g></svg>