<svg xmlns="http://www.w3.org/2000/svg" viewBox="0 0 117.46 115.74"><defs><style>.cls-1,.cls-2{fill-rule:evenodd;}.cls-2{stroke:#000;stroke-linejoin:round;}</style></defs><title>Asset 3</title><g id="Layer_2" data-name="Layer 2"><g id="Layer_1-2" data-name="Layer 1"><polygon class="cls-1" points="58.73 66.04 29.3 51.36 58.73 1 88.16 51.36 58.73 66.04 58.73 66.04"/><path d="M58.73,66l-14.8-7C39,56.72,34,54.32,29,51.9a.6.6,0,0,1-.28-.81l0,0h0L36,38.37c2.39-4.24,4.85-8.43,7.28-12.64L57.87.5A1,1,0,0,1,59.23.13a1,1,0,0,1,.36.37L74.21,25.73c2.43,4.21,4.89,8.4,7.28,12.64L88.69,51v0a.6.6,0,0,1-.23.83l0,0c-5,2.41-10,4.81-14.91,7.14Zm0,0,14.63-7.7c4.85-2.56,9.69-5.05,14.53-7.54l-.26.87-7.51-12.5c-2.52-4.16-5-8.36-7.44-12.55L57.87,1.51h1.72L44.77,26.62C42.3,30.81,39.85,35,37.33,39.16l-7.5,12.5-.26-.85c4.84,2.48,9.68,5,14.52,7.54Z"/><polygon class="cls-1" points="92.74 54.76 61.77 69.23 61.77 114.78 115.17 60.08 92.74 54.76 92.74 54.76"/><path d="M92.74,54.76c-5.14,2.58-10.27,5.08-15.38,7.6s-10.22,5-15.32,7.45l.37-.58c.07,7.59.23,15.18.23,22.77l.09,22.78-1.64-.67,6.65-6.87,6.69-6.81L87.84,86.81Q94.53,80,101.29,73.24l13.52-13.51.24.84C107.67,58.64,100.24,56.77,92.74,54.76Zm0,0c7.46,1.54,15,3.21,22.55,4.83a.51.51,0,0,1,.38.59.56.56,0,0,1-.13.24h0L102.35,74.27q-6.57,6.95-13.24,13.78l-13.3,13.73-6.65,6.86-6.7,6.81h0a1,1,0,0,1-1.36,0,.94.94,0,0,1-.28-.68L60.91,92c0-7.59.16-15.18.23-22.77h0a.6.6,0,0,1,.37-.56c5.22-2.36,10.43-4.74,15.65-7S87.56,57,92.74,54.76Z"/><polygon class="cls-1" points="63.63 2.61 116.47 56.04 92.95 50.08 63.63 2.61 63.63 2.61"/><path d="M63.63,2.61c4.27,4.28,8.64,8.63,13,12.91L90.09,28.58c4.53,4.34,9.07,8.83,13.58,13.3l13.5,13.46a1,1,0,0,1-.93,1.66h0c-3.92-1-7.83-2-11.74-3L92.73,51h0a.87.87,0,0,1-.53-.4c-2.46-4-5-8.07-7.36-12.14L77.68,26.24l-7-12C68.33,10.34,66,6.44,63.63,2.61Zm0,0c2.54,4.08,5.07,8.09,7.63,12.07l7.63,11.77L86.41,38c2.48,3.84,4.87,7.71,7.31,11.59l-.55-.4,11.77,2.92c3.93,1,7.86,1.93,11.77,2.95l-.94,1.65L102.84,43.48C98.55,39.05,94.28,34.63,90,30.07L77,16.41C72.59,11.79,68.16,7.23,63.63,2.61Z"/><polygon class="cls-1" points="24.72 54.76 2.29 60.08 55.68 114.78 55.68 69.23 24.72 54.76 24.72 54.76"/><path d="M24.72,54.76c-7.5,2-14.93,3.88-22.32,5.81l.25-.84L16.16,73.24,22.92,80l6.7,6.81L43,100.43l6.7,6.81,6.65,6.87-1.65.67L54.81,92c0-7.59.16-15.18.23-22.77l.37.58c-5.1-2.46-10.21-4.91-15.31-7.44S29.86,57.34,24.72,54.76Zm0,0C29.9,57,35.09,59.32,40.3,61.63s10.43,4.67,15.65,7a.63.63,0,0,1,.37.57h0c.08,7.59.23,15.18.23,22.77l.09,22.78a1,1,0,0,1-1,1,1,1,0,0,1-.69-.28h0l-6.71-6.81-6.64-6.87L28.35,88.05l-6.64-6.87-6.6-6.91L1.93,60.43h0a.49.49,0,0,1,0-.7.53.53,0,0,1,.23-.13C9.74,58,17.26,56.3,24.72,54.76Z"/><polygon class="cls-1" points="52.83 2.61 0.99 56.04 24.5 50.08 52.83 2.61"/><path d="M52.83,2.61c-4.45,4.62-8.8,9.18-13.12,13.8L27,30.07c-4.2,4.56-8.38,9-12.59,13.4L1.7,56.73.75,55.08c3.91-1,7.84-2,11.76-2.95l11.77-2.92-.55.41C26.08,45.74,28.4,41.87,30.8,38l7.27-11.57,7.38-11.78C47.93,10.7,50.37,6.69,52.83,2.61Zm0,0c-2.26,3.83-4.54,7.73-6.78,11.66l-6.78,12L32.38,38.4c-2.32,4.07-4.73,8.11-7.1,12.14a.91.91,0,0,1-.54.41h0L13,54c-3.91,1-7.82,2-11.75,3h0A1,1,0,0,1,0,56.28a1,1,0,0,1,.25-.93L13.53,41.89c4.43-4.48,8.88-9,13.33-13.31L40,15.52C44.35,11.23,48.64,6.89,52.83,2.61Z"/><polygon class="cls-2" points="59.15 1.13 53.15 2.13 1.15 56.13 2.15 60.13 56.15 115.13 62.15 115.13 115.15 60.13 116.15 56.13 63.15 2.13 59.15 1.13"/></g></g></svg>