<?xml version="1.0" encoding="iso-8859-1"?>
<!-- Generator: Adobe Illustrator 16.0.0, SVG Export Plug-In . SVG Version: 6.00 Build 0)  -->
<!DOCTYPE svg PUBLIC "-//W3C//DTD SVG 1.1//EN" "http://www.w3.org/Graphics/SVG/1.1/DTD/svg11.dtd">
<svg version="1.1" id="Capa_1" xmlns="http://www.w3.org/2000/svg" xmlns:xlink="http://www.w3.org/1999/xlink" x="0px" y="0px"
	 width="35px" height="35px" viewBox="0 0 166.674 166.674" style="enable-background:new 0 0 166.674 166.674;"
	 xml:space="preserve">
<g>
	<g>
		<path d="M160.893,135.229c-3.732-2.362-10.759-2.265-16.544-1.656l-13.938-13.944c1.425-1.182,2.516-2.764,2.978-4.901
			c0,0,2.99-6.899-4.469-15.704c0,0-1.991-8.537,0.45-17.598c2.18-8.02,2.825-20.542-1.145-32.233l16.124-16.118
			c5.791,0.611,12.824,0.718,16.557-1.66c0.949-0.487,1.851-1.121,2.673-1.933c2.808-2.811,3.702-6.814,2.673-10.395
			c-0.486-1.644-1.37-3.209-2.673-4.518c-2.313-2.314-5.413-3.325-8.445-3.039c0.28-3.023-0.743-6.135-3.045-8.442
			c-1.315-1.31-2.874-2.195-4.53-2.673c-3.568-1.029-7.581-0.146-10.388,2.673c-0.811,0.804-1.438,1.702-1.942,2.676
			c-2.363,3.73-2.266,10.757-1.656,16.554l-13.037,13.019c-2.436-2.923-5.341-5.59-8.872-7.873
			c-6.729-4.33-14.432-8.032-30.945-8.306C70.204,18.99,55.021,20.99,43.646,32.882L33.091,22.317
			c0.605-5.797,0.706-12.83-1.678-16.56c-0.478-0.962-1.114-1.866-1.934-2.664c-2.804-2.816-6.819-3.702-10.388-2.673
			c-1.656,0.478-3.215,1.364-4.53,2.673c-2.302,2.308-3.312,5.413-3.033,8.425c-3.011-0.274-6.128,0.743-8.442,3.05
			c-1.297,1.315-2.201,2.875-2.667,4.534c-1.029,3.571-0.137,7.568,2.667,10.394c0.81,0.797,1.708,1.44,2.688,1.924
			c3.73,2.378,10.763,2.277,16.535,1.659l12.708,12.708c-1.117,2.399-2.165,4.938-3.023,7.77c0,0-4.604,15.613,2.436,37.263
			c0,0,0.67,6.327-3.602,10.82c-3.438,3.617-6.777,15.126,3.878,19.546l-12.385,12.386c-5.785-0.615-12.817-0.719-16.541,1.669
			c-0.953,0.475-1.863,1.113-2.676,1.924c-2.804,2.812-3.702,6.832-2.673,10.395c0.484,1.649,1.37,3.221,2.673,4.536
			c2.308,2.302,5.413,3.312,8.437,3.032c-0.28,3.021,0.743,6.132,3.045,8.445c1.315,1.297,2.874,2.187,4.539,2.661
			c3.559,1.035,7.569,0.134,10.388-2.661c0.804-0.804,1.44-1.717,1.924-2.686c2.384-3.732,2.271-10.759,1.665-16.537l19.206-19.212
			c1.315,2.381,2.825,7.143,3.629,16.764c0,0,0.524,6.868,6.491,5.784c0,0,3.063-0.182,3.605-13.177c0,0,3.434-3.251,3.248,4.507
			c0,0-0.91,9.029,4.869,8.488c0,0,3.243,1.984,4.509-7.941c0,0,0-8.664,3.075-5.419c0,0,0.898,12.636,4.512,13.901
			c0,0,5.23,1.626,6.138-5.236c0,0-0.012-11.003,2.88-9.018c0,0,1.084,0.725,1.255,7.392c0,0-0.171,7.046,4.335,6.687
			c0,0,4.688,0,5.955-10.82c0,0-0.791-12.137,5.298-14.164l21.471,21.477c-0.615,5.785-0.707,12.824,1.674,16.551
			c0.47,0.962,1.121,1.875,1.931,2.673c2.813,2.819,6.826,3.702,10.388,2.673c1.65-0.475,3.222-1.363,4.524-2.673
			c2.314-2.308,3.325-5.413,3.045-8.446c3.014,0.28,6.126-0.742,8.445-3.044c1.304-1.315,2.187-2.874,2.674-4.519
			c1.022-3.58,0.134-7.581-2.674-10.4C162.756,136.349,161.867,135.716,160.893,135.229z M54.972,108.692
			c-2.052-0.408-3.925-1.176-5.593-2.162c-5.389-3.172-8.506-8.859-7.358-14.571c1.528-7.466,9.782-12.084,18.462-10.327
			c3.623,0.743,6.677,2.509,8.967,4.811c3.218,3.239,4.85,7.562,3.979,11.916C71.906,105.843,63.649,110.47,54.972,108.692z
			 M86.085,118.642c-0.637,0.451-1.34,0.719-2.083,0.719c-1.34,0-2.53-0.816-3.321-2.095c-0.795,1.278-1.979,2.095-3.319,2.095
			c-0.749,0-1.464-0.268-2.083-0.719c-1.333-0.992-2.231-2.88-2.231-5.066c0-0.621,0.085-1.211,0.216-1.777
			c0.743-4.47,7.417-10.096,7.417-10.096s6.667,5.626,7.41,10.096c0.141,0.56,0.213,1.162,0.213,1.777
			C88.316,115.762,87.396,117.649,86.085,118.642z M114.828,104.052c-2.277,2.229-5.291,3.928-8.823,4.641
			c-2.916,0.603-5.76,0.414-8.342-0.293c-5.097-1.425-9.104-5.066-10.12-10.028l-0.006-0.104c-1.09-5.59,1.912-11.18,7.143-14.364
			c1.711-1.041,3.684-1.827,5.821-2.26c8.677-1.769,16.928,2.85,18.45,10.321C119.852,96.404,118.147,100.801,114.828,104.052z"/>
	</g>
</g>
<g>
</g>
<g>
</g>
<g>
</g>
<g>
</g>
<g>
</g>
<g>
</g>
<g>
</g>
<g>
</g>
<g>
</g>
<g>
</g>
<g>
</g>
<g>
</g>
<g>
</g>
<g>
</g>
<g>
</g>
</svg>
