<svg id="Layer_1" data-name="Layer 1" xmlns="http://www.w3.org/2000/svg" viewBox="0 0 300 300"><defs><style>.cls-1{fill:#fff;fill-rule:evenodd;}</style></defs><path class="cls-1" d="M159,87.73c-3.39,2.46-10,3.46-10,3.46,22.42-18.53,37.1-51.78,40-65,0,0-5.4,4.8-11.38,9.54,0,0,10-11.22,14.63-18.41s-2.64-7,1.84-15.31c-66.5,15.93-91,71.75-100,108.52q-.54-10.65-.46-21.25c-.17.19-.33.38-.5.6-18.36,25.82-16.37,54.34-11.93,73.35-.29-.76-4.87-13.18-9.45-25.35-6.7,16.11-2.1,53.45,6.05,67.71-4.75-5-10.62-10.88-10.53-9.66-.18,2.45,6.74,31.6,10.21,36.72,3,5.2,17.57,16,20.33,20.45,2.48,4.53,10.21,25.42,10.39,25.38-.26.07,9.42,25.18,7.32,16.84s2.72-9.38,2.7-9.37q-5.13-14.65-9-29.64c-.38.09,33.53-35.65,29-56.1,0,0-5.92,4-13.31,13,1-1.83,20.4-32.29,22.64-59.62,0,0-7.62,5.29-16.14,11C155.65,135.72,161.25,99.11,159,87.73ZM103.5,252,100.57,251q-1.65-3.49-3.22-7c-3.1-12.28-7.68-43.56-1.14-81.7,6-38,23.2-82.95,52-120.25-31.93,43.7-46.75,97.37-49.43,138.86C95.44,222.56,104.2,252.07,103.5,252Z"/></svg>