<?xml version="1.0" encoding="UTF-8"?>
<svg id="Layer_2" data-name="Layer 2" xmlns="http://www.w3.org/2000/svg" xmlns:xlink="http://www.w3.org/1999/xlink" viewBox="0 0 250 250">
  <defs>
    <style>
      .cls-1 {
        mask: url(#mask);
      }

      .cls-2 {
        fill: #ecc071;
      }

      .cls-3 {
        fill: #fff;
      }

      .cls-4 {
        fill: #e6a848;
      }

      .cls-5 {
        fill: #98592e;
      }

      .cls-6 {
        fill: #b7cac9;
      }

      .cls-7 {
        fill: #bc7432;
      }

      .cls-8 {
        fill: #d2dfde;
      }

      .cls-9 {
        fill: #2385d9;
      }

      .cls-10 {
        fill: #11446e;
      }

      .cls-11 {
        fill: #19609c;
      }

      .cls-12 {
        fill: #94a3a2;
      }

      .cls-13 {
        fill: #6f7d7c;
      }

      .cls-14 {
        fill: #7a3f16;
      }
    </style>
    <mask id="mask" x="-3.81" y="-2.69" width="254.48" height="262.05" maskUnits="userSpaceOnUse">
      <g>
        <rect class="cls-3" x="-3.81" y="-2.69" width="254.48" height="262.05"/>
        <path d="M124.71,86.89l-41.2,38.29,41.2,38.29,41.2-38.29-41.2-38.29h0Z"/>
      </g>
    </mask>
  </defs>
  <g id="Layer_1-2" data-name="Layer 1">
    <g class="cls-1">
      <g id="novice">
        <g id="Inside">
          <g>
            <polygon class="cls-8" points="41.01 125 63.64 125 125 125 125 63.64 125 41.01 41.01 125"/>
            <polygon class="cls-6" points="208.99 125 186.36 125 125 125 125 63.64 125 41.01 208.99 125"/>
            <polygon class="cls-12" points="41.01 125 63.64 125 125 125 125 186.36 125 208.99 41.01 125"/>
            <polygon class="cls-13" points="208.99 125 186.36 125 125 125 125 186.36 125 208.99 208.99 125"/>
          </g>
          <g>
            <polygon class="cls-5" points="63.64 125 125 125 125 63.64 63.64 125"/>
            <polygon class="cls-7" points="186.36 125 125 125 125 63.64 186.36 125"/>
            <polygon class="cls-7" points="63.64 125 125 125 125 186.36 63.64 125"/>
            <polygon class="cls-4" points="186.36 125 125 125 125 186.36 186.36 125"/>
          </g>
        </g>
        <g id="Blue">
          <polygon class="cls-9" points="125 63.64 63.64 125 72.83 125 125 72.83 125 63.64"/>
          <polygon class="cls-11" points="125 186.36 63.64 125 72.83 125 125 177.17 125 186.36"/>
          <polygon class="cls-11" points="125 63.64 186.36 125 177.17 125 125 72.83 125 63.64"/>
          <polygon class="cls-10" points="125 186.36 186.36 125 177.17 125 125 177.17 125 186.36"/>
        </g>
        <g id="D10">
          <g>
            <g>
              <path class="cls-5" d="M125,86.71l-41.2,38.29,41.2,38.29,41.2-38.29-41.2-38.29h0Z"/>
              <polygon class="cls-3" points="125 92.16 89.62 124.59 125 157.83 160.38 124.59 125 92.16"/>
            </g>
            <g>
              <polygon class="cls-3" points="106.55 122.02 90.26 125.19 124 156.89 124 130.63 106.55 122.02"/>
              <polygon class="cls-3" points="120.69 96.11 91.41 122.95 106.06 120.1 120.69 96.11"/>
              <polygon class="cls-3" points="129.31 96.11 158.59 122.95 143.94 120.1 129.31 96.11"/>
              <polygon class="cls-3" points="143.45 122.02 126 130.63 126 156.89 159.74 125.19 143.45 122.02"/>
              <polygon class="cls-3" points="125 92.16 108.1 120.57 125 128.91 141.9 120.57 125 92.16"/>
            </g>
          </g>
          <polygon class="cls-2" points="83.8 125 89.62 124.59 125 92.16 125 86.71 83.8 125"/>
        </g>
        <g id="Frame">
          <g>
            <g>
              <polygon class="cls-7" points="22.31 102.69 33.17 114.45 50.83 96.8 35.31 89.69 22.31 102.69"/>
              <polygon class="cls-13" points="38.83 86.17 54.35 93.28 67.35 80.28 51.83 73.17 38.83 86.17"/>
              <polygon class="cls-13" points="55.35 69.65 70.87 76.76 83.87 63.76 68.35 56.65 55.35 69.65"/>
              <polygon class="cls-13" points="71.87 53.13 87.39 60.24 100.39 47.24 84.87 40.13 71.87 53.13"/>
            </g>
            <polygon class="cls-4" points="26.16 109.62 42.75 114.07 112.77 44.05 125 10.79 26.16 109.62"/>
            <rect class="cls-5" x="29.09" y="76.74" width="86.3" height="6.5" transform="translate(-35.4 74.51) rotate(-45)"/>
            <polygon class="cls-5" points="125 31.82 31.82 125 41.01 125 125 41.01 125 31.82"/>
            <polygon class="cls-12" points="100.09 56.73 50.54 106.28 59.73 106.28 105.77 60.25 100.09 56.73"/>
            <g>
              <polygon class="cls-14" points="50.54 106.28 59.73 106.28 56.21 109.8 47.02 109.8 50.54 106.28"/>
              <polygon class="cls-14" points="67.06 89.77 76.25 89.77 72.73 93.28 63.54 93.28 67.06 89.77"/>
              <polygon class="cls-14" points="83.58 73.25 92.77 73.25 89.25 76.77 80.06 76.77 83.58 73.25"/>
              <polygon class="cls-14" points="100.09 56.73 109.29 56.73 105.77 60.25 96.57 60.25 100.09 56.73"/>
            </g>
            <g>
              <rect class="cls-6" x="78.58" y="61.2" width="18.38" height="6.5" transform="translate(-19.86 80.94) rotate(-45)"/>
              <rect class="cls-6" x="62.06" y="77.72" width="18.38" height="6.5" transform="translate(-36.38 74.1) rotate(-45)"/>
              <rect class="cls-6" x="45.55" y="94.24" width="18.38" height="6.5" transform="translate(-52.9 67.26) rotate(-45)"/>
              <polygon class="cls-7" points="47.02 109.8 42.42 105.21 22.63 125 31.82 125 47.02 109.8"/>
              <g>
                <polygon class="cls-2" points="42.42 105.21 35.31 89.69 0 125 22.63 125 42.42 105.21"/>
                <polygon class="cls-8" points="45.94 101.69 38.83 86.17 51.83 73.17 58.94 88.69 45.94 101.69"/>
                <polygon class="cls-8" points="62.46 85.17 55.35 69.65 68.35 56.65 75.46 72.17 62.46 85.17"/>
                <polygon class="cls-8" points="78.98 68.65 71.87 53.13 84.87 40.13 91.98 55.65 78.98 68.65"/>
              </g>
              <g>
                <polygon class="cls-7" points="95.5 52.13 100.09 56.73 125 31.82 125 22.63 95.5 52.13"/>
                <polygon class="cls-2" points="88.39 36.61 95.5 52.13 125 22.63 125 0 88.39 36.61"/>
              </g>
            </g>
          </g>
          <g>
            <g>
              <polygon class="cls-5" points="227.69 102.69 216.83 114.45 199.17 96.8 214.69 89.69 227.69 102.69"/>
              <polygon class="cls-13" points="211.17 86.17 195.65 93.28 182.65 80.28 198.17 73.17 211.17 86.17"/>
              <polygon class="cls-13" points="194.65 69.65 179.13 76.76 166.13 63.76 181.65 56.65 194.65 69.65"/>
              <polygon class="cls-13" points="178.13 53.13 162.61 60.24 149.61 47.24 165.13 40.13 178.13 53.13"/>
            </g>
            <polygon class="cls-7" points="223.84 109.62 207.25 114.07 137.23 44.05 125 10.79 223.84 109.62"/>
            <rect class="cls-5" x="174.51" y="36.84" width="6.5" height="86.3" transform="translate(-4.49 149.13) rotate(-45)"/>
            <polygon class="cls-5" points="125 31.82 218.18 125 208.99 125 125 41.01 125 31.82"/>
            <polygon class="cls-13" points="153.43 60.25 199.46 106.28 190.27 106.28 144.23 60.25 153.43 60.25"/>
            <g>
              <polygon class="cls-14" points="199.46 106.28 190.27 106.28 193.79 109.8 202.98 109.8 199.46 106.28"/>
              <polygon class="cls-14" points="182.94 89.77 173.75 89.77 177.27 93.28 186.46 93.28 182.94 89.77"/>
              <polygon class="cls-14" points="166.42 73.25 157.23 73.25 160.75 76.77 169.94 76.77 166.42 73.25"/>
              <polygon class="cls-14" points="149.91 56.73 140.71 56.73 144.23 60.25 153.43 60.25 149.91 56.73"/>
            </g>
            <g>
              <rect class="cls-12" x="158.97" y="55.26" width="6.5" height="18.38" transform="translate(1.94 133.59) rotate(-45)"/>
              <rect class="cls-12" x="175.49" y="71.77" width="6.5" height="18.38" transform="translate(-4.9 150.11) rotate(-45)"/>
              <rect class="cls-12" x="192.01" y="88.29" width="6.5" height="18.38" transform="translate(-11.74 166.62) rotate(-45)"/>
              <polygon class="cls-7" points="202.98 109.8 207.58 105.21 227.37 125 218.18 125 202.98 109.8"/>
              <g>
                <polygon class="cls-4" points="207.58 105.21 214.69 89.69 250 125 227.37 125 207.58 105.21"/>
                <polygon class="cls-6" points="204.06 101.69 211.17 86.17 198.17 73.17 191.06 88.69 204.06 101.69"/>
                <polygon class="cls-6" points="187.54 85.17 194.65 69.65 181.65 56.65 174.54 72.17 187.54 85.17"/>
                <polygon class="cls-6" points="171.02 68.65 178.13 53.13 165.13 40.13 158.02 55.65 171.02 68.65"/>
              </g>
              <g>
                <polygon class="cls-7" points="154.5 52.13 149.91 56.73 125 31.82 125 22.63 154.5 52.13"/>
                <polygon class="cls-4" points="161.61 36.61 154.5 52.13 125 22.63 125 0 161.61 36.61"/>
              </g>
            </g>
          </g>
          <g>
            <g>
              <polygon class="cls-5" points="22.31 147.31 33.17 135.55 50.83 153.2 35.31 160.31 22.31 147.31"/>
              <polygon class="cls-13" points="38.83 163.83 54.35 156.72 67.35 169.72 51.83 176.83 38.83 163.83"/>
              <polygon class="cls-5" points="55.35 180.35 70.87 173.24 83.87 186.24 68.35 193.35 55.35 180.35"/>
              <polygon class="cls-13" points="71.87 196.87 87.39 189.76 100.39 202.76 84.87 209.87 71.87 196.87"/>
            </g>
            <polygon class="cls-5" points="26.16 140.38 42.75 135.93 112.77 205.95 125 239.21 26.16 140.38"/>
            <rect class="cls-5" x="68.99" y="126.86" width="6.5" height="86.3" transform="translate(-99.06 100.87) rotate(-45)"/>
            <polygon class="cls-4" points="125 218.18 31.82 125 41.01 125 125 208.99 125 218.18"/>
            <polygon class="cls-6" points="96.57 189.75 50.54 143.72 59.73 143.72 105.77 189.75 96.57 189.75"/>
            <g>
              <polygon class="cls-14" points="50.54 143.72 59.73 143.72 56.21 140.2 47.02 140.2 50.54 143.72"/>
              <polygon class="cls-14" points="67.06 160.23 76.25 160.23 72.73 156.72 63.54 156.72 67.06 160.23"/>
              <polygon class="cls-14" points="83.58 176.75 92.77 176.75 89.25 173.23 80.06 173.23 83.58 176.75"/>
              <polygon class="cls-14" points="100.09 193.27 109.29 193.27 105.77 189.75 96.57 189.75 100.09 193.27"/>
            </g>
            <g>
              <rect class="cls-8" x="84.53" y="176.36" width="6.5" height="18.38" transform="translate(-105.5 116.41) rotate(-45)"/>
              <rect class="cls-8" x="68.01" y="159.84" width="6.5" height="18.38" transform="translate(-98.65 99.89) rotate(-45)"/>
              <rect class="cls-8" x="51.49" y="143.32" width="6.5" height="18.38" transform="translate(-91.81 83.38) rotate(-45)"/>
              <polygon class="cls-2" points="47.02 140.2 42.42 144.79 22.63 125 31.82 125 47.02 140.2"/>
              <g>
                <polygon class="cls-7" points="42.42 144.79 35.31 160.31 0 125 22.63 125 42.42 144.79"/>
                <polygon class="cls-12" points="45.94 148.31 38.83 163.83 51.83 176.83 58.94 161.31 45.94 148.31"/>
                <polygon class="cls-12" points="62.46 164.83 55.35 180.35 68.35 193.35 75.46 177.83 62.46 164.83"/>
                <polygon class="cls-12" points="78.98 181.35 71.87 196.87 84.87 209.87 91.98 194.35 78.98 181.35"/>
              </g>
              <g>
                <polygon class="cls-2" points="95.5 197.87 100.09 193.27 125 218.18 125 227.37 95.5 197.87"/>
                <polygon class="cls-7" points="88.39 213.39 95.5 197.87 125 227.37 125 250 88.39 213.39"/>
              </g>
            </g>
          </g>
          <g>
            <g>
              <polygon class="cls-5" points="227.69 147.31 216.83 135.55 199.17 153.2 214.69 160.31 227.69 147.31"/>
              <polygon class="cls-12" points="211.17 163.83 195.65 156.72 182.65 169.72 198.17 176.83 211.17 163.83"/>
              <polygon class="cls-5" points="194.65 180.35 179.13 173.24 166.13 186.24 181.65 193.35 194.65 180.35"/>
              <polygon class="cls-12" points="178.13 196.87 162.61 189.76 149.61 202.76 165.13 209.87 178.13 196.87"/>
            </g>
            <polygon class="cls-14" points="223.84 140.38 207.25 135.93 137.23 205.95 125 239.21 223.84 140.38"/>
            <rect class="cls-5" x="134.62" y="166.76" width="86.3" height="6.5" transform="translate(-68.15 175.49) rotate(-45)"/>
            <polygon class="cls-2" points="125 218.18 218.18 125 208.99 125 125 208.99 125 218.18"/>
            <g>
              <polygon class="cls-14" points="199.46 143.72 190.27 143.72 193.79 140.2 202.98 140.2 199.46 143.72"/>
              <polygon class="cls-14" points="182.94 160.23 173.75 160.23 177.27 156.72 186.46 156.72 182.94 160.23"/>
              <polygon class="cls-14" points="166.42 176.75 157.23 176.75 160.75 173.23 169.94 173.23 166.42 176.75"/>
              <polygon class="cls-14" points="149.91 193.27 140.71 193.27 144.23 189.75 153.43 189.75 149.91 193.27"/>
            </g>
            <g>
              <rect class="cls-12" x="153.03" y="182.3" width="18.38" height="6.5" transform="translate(-83.69 169.06) rotate(-45)"/>
              <polygon class="cls-8" points="144.23 189.75 157.23 176.75 166.42 176.75 153.43 189.75 144.23 189.75"/>
              <polygon class="cls-8" points="177.27 156.72 190.27 143.72 199.46 143.72 186.46 156.72 177.27 156.72"/>
              <rect class="cls-7" x="169.55" y="165.78" width="18.38" height="6.5" transform="translate(-67.17 175.9) rotate(-45)"/>
              <rect class="cls-12" x="186.07" y="149.26" width="18.38" height="6.5" transform="translate(-50.65 182.74) rotate(-45)"/>
              <polygon class="cls-7" points="202.98 140.2 207.58 144.79 227.37 125 218.18 125 202.98 140.2"/>
              <g>
                <polygon class="cls-5" points="207.58 144.79 214.69 160.31 250 125 227.37 125 207.58 144.79"/>
                <polygon class="cls-13" points="204.06 148.31 211.17 163.83 198.17 176.83 191.06 161.31 204.06 148.31"/>
                <polygon class="cls-5" points="187.54 164.83 194.65 180.35 181.65 193.35 174.54 177.83 187.54 164.83"/>
                <polygon class="cls-13" points="171.02 181.35 178.13 196.87 165.13 209.87 158.02 194.35 171.02 181.35"/>
              </g>
              <g>
                <polygon class="cls-7" points="154.5 197.87 149.91 193.27 125 218.18 125 227.37 154.5 197.87"/>
                <polygon class="cls-5" points="161.61 213.39 154.5 197.87 125 227.37 125 250 161.61 213.39"/>
              </g>
            </g>
          </g>
        </g>
      </g>
    </g>
  </g>
</svg>