<?xml version="1.0" encoding="UTF-8"?>
<svg id="Layer_2" data-name="Layer 2" xmlns="http://www.w3.org/2000/svg" viewBox="0 0 220.89 250">
  <defs>
    <style>
      .cls-1 {
        fill: #ecc071;
      }

      .cls-2 {
        fill: #f2daab;
      }

      .cls-3 {
        fill: #e6a848;
      }

      .cls-4 {
        fill: #98592e;
      }

      .cls-5 {
        fill: #bc7432;
      }

      .cls-6 {
        fill: #d18e3d;
      }

      .cls-7 {
        fill: #dfa757;
      }

      .cls-8 {
        fill: #1e71b8;
      }

      .cls-9 {
        fill: #2385d9;
      }

      .cls-10 {
        fill: #11446e;
      }

      .cls-11 {
        fill: #155285;
      }

      .cls-12 {
        fill: #19609c;
      }

      .cls-13 {
        fill: #592e10;
      }

      .cls-14 {
        fill: #7a3f16;
      }
    </style>
  </defs>
  <g id="Layer_1-2" data-name="Layer 1">
    <g id="powers">
      <g id="Back">
        <g id="Back-2" data-name="Back">
          <g>
            <polygon class="cls-4" points="28.54 179.55 20.43 179.55 20.43 214.59 41.01 193.93 28.54 179.55"/>
            <polygon class="cls-3" points="20.43 167.03 .48 159.59 .48 234.62 20.43 214.59 20.43 167.03"/>
            <g>
              <polygon class="cls-5" points="20.43 85.58 28.54 85.58 41.01 54 20.43 33.34 20.43 85.58"/>
              <polygon class="cls-1" points=".48 90.65 20.43 98.1 20.43 33.34 .48 13.31 .48 90.65"/>
            </g>
          </g>
          <g>
            <polygon class="cls-4" points="166.05 41.48 166.05 33.34 200.94 33.34 180.37 54 166.05 41.48"/>
            <polygon class="cls-3" points="153.58 33.34 146.16 13.31 220.89 13.31 200.94 33.34 153.58 33.34"/>
            <g>
              <polygon class="cls-5" points="72.45 33.34 72.45 41.48 41.01 54 20.43 33.34 72.45 33.34"/>
              <polygon class="cls-3" points="77.51 13.31 84.92 33.34 20.43 33.34 .48 13.31 77.51 13.31"/>
            </g>
          </g>
          <g>
            <polygon class="cls-4" points="55.33 206.45 55.33 214.59 20.43 214.59 41.01 193.93 55.33 206.45"/>
            <polygon class="cls-14" points="67.8 214.59 75.22 234.62 .48 234.62 20.43 214.59 67.8 214.59"/>
            <g>
              <polygon class="cls-14" points="148.92 214.59 148.92 206.45 180.37 193.93 200.94 214.59 148.92 214.59"/>
              <polygon class="cls-13" points="143.87 234.62 136.45 214.59 200.94 214.59 220.89 234.62 143.87 234.62"/>
            </g>
          </g>
          <g>
            <polygon class="cls-4" points="192.84 68.39 200.94 68.39 200.94 33.34 180.37 54 192.84 68.39"/>
            <polygon class="cls-14" points="200.94 33.34 200.94 68.39 200.94 95.79 220.89 88.35 220.89 75.83 220.89 52.81 220.89 13.31 200.94 33.34"/>
            <g>
              <polygon class="cls-14" points="200.94 162.36 192.84 162.36 180.37 193.93 200.94 214.59 200.94 162.36"/>
              <polygon class="cls-13" points="220.89 157.28 200.94 149.84 200.94 214.59 220.89 234.62 220.89 157.28"/>
            </g>
          </g>
        </g>
        <g id="Blue">
          <path class="cls-12" d="M86.35,148.4v80.81H5.87v-80.81H86.35m5.39-5.41H.48v91.63H91.74v-91.63h0Z"/>
          <polygon class="cls-10" points="86.35 148.4 86.35 229.21 5.87 229.21 .48 234.62 91.74 234.62 91.74 142.99 86.35 148.4"/>
          <path class="cls-9" d="M86.35,18.73V99.53H5.87V18.73H86.35m5.39-5.41H.48V104.94H91.74V13.31h0Z"/>
          <path class="cls-10" d="M215.5,148.4v80.81h-80.48v-80.81h80.48m5.39-5.41h-91.26v91.63h91.26v-91.63h0Z"/>
          <path class="cls-8" d="M215.5,18.73V99.53h-80.48V18.73h80.48m5.39-5.41h-91.26V104.94h91.26V13.31h0Z"/>
          <polygon class="cls-12" points="215.5 18.73 215.5 99.53 135.02 99.53 129.64 104.94 220.89 104.94 220.89 13.31 215.5 18.73"/>
        </g>
      </g>
      <g id="Back-3" data-name="Back">
        <g>
          <g>
            <polygon class="cls-6" points="26.87 207.99 60.12 212.07 39.06 191.82 13.79 177.16 26.87 207.99"/>
            <polygon class="cls-6" points="60.43 233.27 93.67 237.36 72.61 217.1 47.34 202.44 60.43 233.27"/>
          </g>
          <g>
            <g>
              <polygon class="cls-12" points="29.65 204.3 53.73 207.26 39.06 191.82 20.18 181.97 29.65 204.3"/>
              <polygon class="cls-8" points="29.65 204.3 36.95 194.61 39.06 191.82 20.18 181.97 29.65 204.3"/>
            </g>
            <g>
              <polygon class="cls-12" points="63.21 229.59 87.28 232.54 72.61 217.1 53.73 207.26 63.21 229.59"/>
              <polygon class="cls-8" points="63.21 229.59 70.51 219.9 72.61 217.1 53.73 207.26 63.21 229.59"/>
            </g>
          </g>
        </g>
        <g>
          <g>
            <polygon class="cls-5" points="194.02 207.99 160.78 212.07 181.83 191.82 207.1 177.16 194.02 207.99"/>
            <polygon class="cls-5" points="160.47 233.27 127.22 237.36 148.28 217.1 173.55 202.44 160.47 233.27"/>
          </g>
          <g>
            <g>
              <polygon class="cls-12" points="191.24 204.3 167.16 207.26 181.83 191.82 200.72 181.97 191.24 204.3"/>
              <polygon class="cls-10" points="191.24 204.3 183.94 194.61 181.83 191.82 200.72 181.97 191.24 204.3"/>
            </g>
            <g>
              <polygon class="cls-12" points="157.69 229.59 133.61 232.54 148.28 217.1 167.16 207.26 157.69 229.59"/>
              <polygon class="cls-10" points="157.69 229.59 150.39 219.9 148.28 217.1 167.16 207.26 157.69 229.59"/>
            </g>
          </g>
        </g>
        <g>
          <g>
            <polygon class="cls-1" points="65.3 14.03 98.79 14.03 42.83 60.95 48.55 43.04 65.3 14.03"/>
            <polygon class="cls-1" points="18.3 47.91 67.78 26.71 16.13 99.89 12.84 93.76 18.3 47.91"/>
            <g>
              <polygon class="cls-8" points="67.61 18.03 91.86 18.03 75.42 31.57 55.48 39.04 67.61 18.03"/>
              <polygon class="cls-9" points="67.61 18.03 73.67 28.54 75.42 31.57 42.83 60.95 67.61 18.03"/>
            </g>
          </g>
          <g>
            <polygon class="cls-8" points="22 50.68 73.67 28.54 92.63 20.41 39.7 63.92 19.13 74.77 22 50.68"/>
            <polygon class="cls-9" points="22 50.68 31.71 57.95 39.7 63.92 16.13 99.89 22 50.68"/>
          </g>
        </g>
        <g>
          <g>
            <polygon class="cls-6" points="155.6 14.03 122.1 14.03 178.07 60.95 172.34 43.04 155.6 14.03"/>
            <polygon class="cls-6" points="202.59 47.91 153.12 26.71 204.76 99.89 208.06 93.76 202.59 47.91"/>
            <g>
              <polygon class="cls-12" points="153.29 18.03 129.03 18.03 145.47 31.57 165.42 39.04 153.29 18.03"/>
              <polygon class="cls-10" points="153.29 18.03 147.22 28.54 145.47 31.57 178.07 60.95 153.29 18.03"/>
            </g>
          </g>
          <g>
            <polygon class="cls-12" points="198.89 50.68 147.22 28.54 128.26 20.41 181.19 63.92 201.77 74.77 198.89 50.68"/>
            <polygon class="cls-10" points="198.89 50.68 189.18 57.95 181.19 63.92 204.76 99.89 198.89 50.68"/>
          </g>
        </g>
      </g>
      <g id="Inside">
        <g>
          <polygon class="cls-8" points="117.62 86.71 117.62 11.34 50.19 160.53 117.62 197.14 117.62 164.78 117.62 86.71"/>
          <polygon class="cls-11" points="50.19 160.53 110.45 27.2 110.45 11.34 67.22 68.14 32.6 160.53 50.19 160.53"/>
          <polygon class="cls-11" points="40.41 153.6 40.41 157.67 110.45 168.75 40.41 153.6"/>
          <polygon class="cls-11" points="44.02 158.32 110.45 170.3 110.45 189.56 44.02 158.32"/>
          <polygon class="cls-9" points="16 93.54 46.7 108.58 52.31 73.59 16 93.54"/>
          <polygon class="cls-8" points="16 93.54 46.7 108.58 16 157.25 16 93.54"/>
          <polygon class="cls-11" points="204.89 93.54 174.19 108.58 168.58 73.59 204.89 93.54"/>
          <polygon class="cls-10" points="204.89 93.54 174.19 108.58 204.89 157.25 204.89 93.54"/>
          <polygon class="cls-11" points="110.45 86.71 110.45 11.34 153.68 68.14 188.3 160.53 110.45 197.14 110.45 164.78 110.45 86.71"/>
          <polygon class="cls-10" points="180.48 153.6 180.48 157.67 110.45 168.75 180.48 153.6"/>
          <polygon class="cls-10" points="170.7 160.53 110.45 27.2 110.45 11.34 153.68 68.14 188.3 160.53 170.7 160.53"/>
          <polygon class="cls-10" points="176.87 158.32 110.45 170.3 110.45 189.56 176.87 158.32"/>
        </g>
        <g>
          <g>
            <polygon class="cls-5" points="136.37 51.24 110.45 75.75 84.53 51.24 78.71 51.24 110.45 81.25 142.19 51.24 136.37 51.24"/>
            <polygon class="cls-3" points="78.71 51.24 110.45 81.25 110.45 75.75 84.53 51.24 78.71 51.24"/>
            <polygon class="cls-5" points="136.37 27.15 110.45 51.65 84.53 27.15 78.71 27.15 110.45 57.15 142.19 27.15 136.37 27.15"/>
            <polygon class="cls-3" points="78.71 27.15 110.45 57.15 110.45 51.65 84.53 27.15 78.71 27.15"/>
          </g>
          <g>
            <polygon class="cls-3" points="43.77 158.28 40.14 157.71 40.23 161.77 110.45 172.8 110.45 168.75 43.77 158.28"/>
            <polygon class="cls-5" points="177.13 158.28 180.75 157.71 180.66 161.77 110.45 172.8 110.45 168.75 177.13 158.28"/>
          </g>
        </g>
        <g>
          <path class="cls-5" d="M110.45,81.25l-47.07,43.75,47.07,43.75,47.07-43.75-47.07-43.75Zm0,82.04l-41.2-38.29,41.2-38.29,41.2,38.29-41.2,38.29Z"/>
          <polygon class="cls-1" points="151.64 125 110.45 163.29 110.45 168.75 157.52 125 151.64 125"/>
          <polygon class="cls-4" points="110.45 81.25 63.38 125 69.25 125 110.45 86.71 110.45 81.25"/>
        </g>
      </g>
      <g id="D10">
        <g>
          <g>
            <path class="cls-10" d="M110.45,86.71l-41.2,38.29,41.2,38.29,41.2-38.29-41.2-38.29h0Z"/>
            <polygon class="cls-10" points="110.45 92.16 75.07 124.59 110.45 157.83 145.83 124.59 110.45 92.16"/>
          </g>
          <g>
            <polygon class="cls-6" points="92 122.02 75.7 125.19 109.45 156.89 109.45 130.63 92 122.02"/>
            <polygon class="cls-2" points="106.14 96.11 76.86 122.95 91.51 120.1 106.14 96.11"/>
            <polygon class="cls-5" points="114.76 96.11 144.04 122.95 129.39 120.1 114.76 96.11"/>
            <polygon class="cls-4" points="128.89 122.02 111.45 130.63 111.45 156.89 145.19 125.19 128.89 122.02"/>
            <polygon class="cls-1" points="110.45 92.16 93.55 120.57 110.45 128.91 127.35 120.57 110.45 92.16"/>
          </g>
        </g>
        <polygon class="cls-11" points="69.25 125 75.07 124.59 110.45 92.16 110.45 86.71 69.25 125"/>
      </g>
      <g id="Frame">
        <g>
          <g>
            <polygon class="cls-5" points="99.71 28.58 98.4 19.01 7.63 89.44 7.63 90.66 7.63 157.01 22.5 148.42 22.5 96.72 52.31 73.59 65.17 72.67 96.83 39.04 99.71 28.58"/>
            <polygon class="cls-4" points="99.71 28.58 98.4 19.01 7.63 89.44 7.63 90.66 16 93.54 22.5 96.72 52.31 73.59 65.17 72.67 96.83 39.04 99.71 28.58"/>
            <polygon class="cls-3" points="0 85.7 0 87.55 0 166.77 16 140.7 16 93.54 95.52 31.84 99.71 28.58 110.45 0 16 73.29 0 85.7"/>
          </g>
          <g>
            <g>
              <polygon class="cls-3" points="86.92 63.39 72.6 56.22 62.32 78.97 79.35 80.15 86.92 63.39"/>
              <polygon class="cls-3" points="77.3 84.68 60.27 83.51 52.7 100.26 69.73 101.43 77.3 84.68"/>
              <polygon class="cls-3" points="67.68 105.97 50.65 104.8 43.08 121.55 60.11 122.72 67.68 105.97"/>
              <polygon class="cls-3" points="58.06 127.26 41.03 126.09 33.46 142.84 50.49 144.01 58.06 127.26"/>
              <polygon class="cls-14" points="57.76 50.21 72.6 56.22 62.32 78.97 50.19 66.97 57.76 50.21"/>
              <polygon class="cls-4" points="48.14 71.5 60.27 83.51 52.7 100.26 40.57 88.26 48.14 71.5"/>
              <polygon class="cls-4" points="38.52 92.79 50.65 104.8 43.08 121.55 30.95 109.55 38.52 92.79"/>
              <polygon class="cls-4" points="28.9 114.08 41.03 126.09 33.46 142.84 21.33 130.83 28.9 114.08"/>
            </g>
            <polygon class="cls-5" points="71.25 59.22 28.73 153.29 17.76 157.25 65.61 51.37 71.25 59.22"/>
            <polygon class="cls-3" points="36.3 136.54 19.27 135.37 0 166.77 0 166.77 24.79 162.02 36.3 136.54"/>
            <polygon class="cls-1" points="16 140.7 0 85.7 0 166.77 0 166.77 24.79 162.02 16 140.7"/>
            <polygon class="cls-2" points="16 140.7 0 166.77 0 166.77 24.79 162.02 16 140.7"/>
            <rect class="cls-4" x="11" y="101.69" width="86.3" height="6.5" transform="translate(-63.78 111.07) rotate(-65.68)"/>
            <g>
              <polygon class="cls-4" points="51.85 117.93 58.06 127.26 50.49 144.01 44.28 134.68 51.85 117.93"/>
              <polygon class="cls-4" points="42.23 139.22 48.44 148.55 44.02 158.32 32.6 160.53 42.23 139.22"/>
              <rect class="cls-5" x="35.91" y="121.72" width="18.38" height="6.5" transform="translate(-87.35 114.6) rotate(-65.68)"/>
              <polygon class="cls-4" points="61.47 96.64 67.68 105.97 60.11 122.72 53.9 113.39 61.47 96.64"/>
              <rect class="cls-5" x="45.53" y="100.43" width="18.38" height="6.5" transform="translate(-62.29 110.85) rotate(-65.68)"/>
              <polygon class="cls-4" points="71.09 75.35 77.3 84.68 69.73 101.43 63.52 92.1 71.09 75.35"/>
              <rect class="cls-5" x="55.15" y="79.14" width="18.38" height="6.5" transform="translate(-37.23 107.09) rotate(-65.68)"/>
              <polygon class="cls-4" points="73.14 70.82 79.35 80.15 110.45 11.34 110.45 0 73.14 70.82"/>
              <polygon class="cls-5" points="73.14 70.82 110.45 0 67.22 68.14 73.14 70.82"/>
              <g>
                <polygon class="cls-3" points="50.19 66.97 67.22 68.14 110.45 0 60.47 44.22 50.19 66.97"/>
                <polygon class="cls-1" points="50.19 66.97 50.19 46.76 110.45 0 50.19 66.97"/>
                <polygon class="cls-3" points="65.17 72.67 48.14 71.5 40.57 88.26 57.6 89.43 65.17 72.67"/>
                <polygon class="cls-3" points="55.55 93.96 38.52 92.79 30.95 109.55 47.98 110.72 55.55 93.96"/>
                <polygon class="cls-3" points="45.92 115.25 28.9 114.08 21.33 130.83 38.35 132.01 45.92 115.25"/>
              </g>
            </g>
            <polygon class="cls-5" points="32.6 160.53 42.23 139.22 36.3 136.54 24.79 162.02 32.6 160.53"/>
          </g>
          <g>
            <polygon class="cls-6" points="24.79 162.02 0 166.77 110.45 250 110.45 226.57 24.79 162.02"/>
            <polygon class="cls-5" points="0 166.77 110.45 250 110.45 226.57 0 166.77"/>
            <g>
              <polygon class="cls-3" points="110.45 197.14 110.45 226.57 24.79 162.02 32.6 160.53 110.45 197.14"/>
              <g>
                <polygon class="cls-5" points="85.83 185.56 56.02 185.56 62.21 190.22 95.74 190.22 85.83 185.56"/>
                <polygon class="cls-5" points="52.25 169.77 35.07 169.77 41.25 174.43 62.16 174.43 52.25 169.77"/>
              </g>
            </g>
            <g>
              <polygon class="cls-1" points="110.45 197.14 110.45 189.56 44.02 158.32 32.6 160.53 110.45 197.14"/>
              <polygon class="cls-3" points="52.25 169.77 52.25 162.19 62.16 166.85 62.16 174.43 52.25 169.77"/>
              <polygon class="cls-3" points="85.83 185.56 85.83 177.98 95.74 182.64 95.74 190.22 85.83 185.56"/>
            </g>
          </g>
        </g>
        <g>
          <g>
            <polygon class="cls-1" points="121.18 28.58 122.5 19.01 213.27 89.44 213.27 90.66 213.27 157.01 198.39 148.42 198.39 96.72 168.58 73.59 155.73 72.67 124.06 39.04 121.18 28.58"/>
            <polygon class="cls-4" points="121.18 28.58 122.5 19.01 213.27 89.44 213.27 90.66 204.89 93.54 198.39 96.72 168.58 73.59 155.73 72.67 124.06 39.04 121.18 28.58"/>
            <polygon class="cls-5" points="220.89 85.7 220.89 87.55 220.89 166.77 204.89 152.18 204.89 93.54 125.38 31.84 121.18 28.58 110.45 0 204.89 73.29 220.89 85.7"/>
            <polygon class="cls-6" points="204.89 140.7 220.89 85.7 220.89 166.77 220.89 166.77 196.11 162.02 204.89 140.7"/>
          </g>
          <g>
            <g>
              <polygon class="cls-4" points="133.97 63.39 148.29 56.22 158.57 78.97 141.54 80.15 133.97 63.39"/>
              <polygon class="cls-4" points="143.59 84.68 160.62 83.51 168.19 100.26 151.17 101.43 143.59 84.68"/>
              <polygon class="cls-4" points="153.22 105.97 170.25 104.8 177.82 121.55 160.79 122.72 153.22 105.97"/>
              <polygon class="cls-4" points="162.84 127.26 179.87 126.09 187.44 142.84 170.41 144.01 162.84 127.26"/>
              <polygon class="cls-14" points="163.13 50.21 148.29 56.22 158.57 78.97 170.71 66.97 163.13 50.21"/>
              <polygon class="cls-14" points="172.76 71.5 160.62 83.51 168.19 100.26 180.33 88.26 172.76 71.5"/>
              <polygon class="cls-14" points="182.38 92.79 170.25 104.8 177.82 121.55 189.95 109.55 182.38 92.79"/>
              <polygon class="cls-14" points="192 114.08 179.87 126.09 187.44 142.84 199.57 130.83 192 114.08"/>
            </g>
            <polygon class="cls-4" points="149.65 59.22 192.16 153.29 203.14 157.25 155.29 51.37 149.65 59.22"/>
            <polygon class="cls-5" points="184.59 136.54 201.62 135.37 204.89 140.7 220.89 166.77 196.11 162.02 184.59 136.54"/>
            <polygon class="cls-7" points="204.89 140.7 220.89 166.77 220.89 166.77 196.11 162.02 204.89 140.7"/>
            <rect class="cls-3" x="163.49" y="61.79" width="6.5" height="86.3" transform="translate(-28.42 77.98) rotate(-24.32)"/>
            <g>
              <polygon class="cls-1" points="169.05 117.93 162.84 127.26 170.41 144.01 176.62 134.68 169.05 117.93"/>
              <polygon class="cls-1" points="178.67 139.22 172.46 148.55 176.87 158.32 188.3 160.53 178.67 139.22"/>
              <rect class="cls-2" x="172.54" y="115.78" width="6.5" height="18.38" transform="translate(-35.87 83.49) rotate(-24.32)"/>
              <polygon class="cls-1" points="159.42 96.64 153.22 105.97 160.79 122.72 167 113.39 159.42 96.64"/>
              <rect class="cls-2" x="162.92" y="94.49" width="6.5" height="18.38" transform="translate(-27.95 77.64) rotate(-24.32)"/>
              <polygon class="cls-1" points="149.8 75.35 143.59 84.68 151.17 101.43 157.37 92.1 149.8 75.35"/>
              <rect class="cls-2" x="153.3" y="73.2" width="6.5" height="18.38" transform="translate(-20.04 71.78) rotate(-24.32)"/>
              <polygon class="cls-1" points="147.75 70.82 141.54 80.15 110.45 11.34 110.45 0 147.75 70.82"/>
              <polygon class="cls-2" points="147.75 70.82 110.45 0 153.68 68.14 147.75 70.82"/>
              <g>
                <polygon class="cls-5" points="170.71 66.97 153.68 68.14 110.45 0 160.42 44.22 170.71 66.97"/>
                <polygon class="cls-6" points="170.71 66.97 170.71 46.76 110.45 0 170.71 66.97"/>
                <polygon class="cls-5" points="155.73 72.67 172.76 71.5 180.33 88.26 163.3 89.43 155.73 72.67"/>
                <polygon class="cls-5" points="165.35 93.96 182.38 92.79 189.95 109.55 172.92 110.72 165.35 93.96"/>
                <polygon class="cls-5" points="174.97 115.25 192 114.08 199.57 130.83 182.54 132.01 174.97 115.25"/>
              </g>
            </g>
            <polygon class="cls-2" points="188.3 160.53 178.67 139.22 184.59 136.54 196.11 162.02 188.3 160.53"/>
          </g>
          <g>
            <polygon class="cls-5" points="196.11 162.02 220.89 166.77 110.45 250 110.45 226.57 196.11 162.02"/>
            <polygon class="cls-4" points="220.89 166.77 110.45 250 110.45 226.57 220.89 166.77"/>
            <g>
              <polygon class="cls-6" points="110.45 197.14 110.45 226.57 196.11 162.02 188.3 160.53 110.45 197.14"/>
              <g>
                <polygon class="cls-5" points="135.07 185.56 164.87 185.56 158.69 190.22 125.16 190.22 135.07 185.56"/>
                <polygon class="cls-5" points="168.64 169.77 185.82 169.77 179.64 174.43 158.73 174.43 168.64 169.77"/>
              </g>
            </g>
            <g>
              <polygon class="cls-2" points="110.45 197.14 110.45 189.56 176.87 158.32 188.3 160.53 110.45 197.14"/>
              <polygon class="cls-1" points="168.64 169.77 168.64 162.19 158.73 166.85 158.73 174.43 168.64 169.77"/>
              <polygon class="cls-1" points="135.07 185.56 135.07 177.98 125.16 182.64 125.16 190.22 135.07 185.56"/>
            </g>
          </g>
        </g>
      </g>
    </g>
  </g>
</svg>